<?xml version="1.0" encoding="utf-8"?>
<svg version="1.1" xmlns="http://www.w3.org/2000/svg" viewBox="0 0 1634.6 380" xmlns:bx="https://boxy-svg.com">
  <path d="M 151.499 0.089 C 152.03 0.42 152.452 0.811 152.874 1.267 C 152.53 2.028 152.53 2.028 152.089 2.249 C 151.945 2.705 151.814 3.162 151.697 3.624 C 151.049 3.754 150.399 3.884 149.732 4.019 C 149.817 4.296 149.902 4.576 149.989 4.865 C 150.037 5.022 150.085 5.179 150.136 5.342 C 150.329 5.807 150.555 6.027 150.911 6.374 C 150.874 6.501 150.838 6.626 150.799 6.756 C 150.66 7.185 150.66 7.185 150.983 7.59 C 151.532 7.969 151.74 7.998 152.384 8.044 C 152.998 8.09 153.219 8.108 153.734 8.474 C 154.666 9.8 154.666 9.8 154.605 10.598 C 154.552 10.759 154.501 10.922 154.447 11.089 C 154.377 11.303 154.309 11.519 154.237 11.739 C 154.176 11.914 154.116 12.088 154.053 12.267 C 154.234 12.259 154.417 12.252 154.605 12.243 C 155.231 12.267 155.231 12.267 155.821 12.66 C 156.008 13.065 156.008 13.065 156.152 13.533 C 156.227 13.762 156.227 13.762 156.301 13.997 C 156.411 14.428 156.411 14.428 156.411 15.018 C 156.545 15.067 156.677 15.116 156.816 15.165 C 157.393 15.412 157.393 15.412 158.056 15.804 C 158.724 16.197 159.392 16.392 160.143 16.59 C 160.251 16.657 160.361 16.726 160.473 16.796 C 161.277 17.125 162.16 16.997 163.017 16.967 C 163.91 16.948 164.602 17.032 165.446 17.376 C 165.446 17.506 165.446 17.634 165.446 17.769 C 165.584 17.694 165.72 17.619 165.861 17.542 C 166.624 17.318 166.955 17.513 167.667 17.841 C 167.879 17.936 168.088 18.031 168.303 18.129 C 168.463 18.204 168.623 18.28 168.787 18.357 C 168.787 18.616 168.787 18.876 168.787 19.142 C 168.92 19.11 169.054 19.077 169.19 19.045 C 170.192 18.876 171.079 18.921 172.066 19.142 C 172.822 19.31 173.498 19.349 174.274 19.328 C 176.118 19.301 177.448 19.708 178.863 20.88 C 179.201 21.161 179.201 21.161 179.714 21.07 C 179.865 21.018 180.019 20.964 180.179 20.91 C 180.829 20.996 180.829 20.996 181.357 21.108 C 181.421 20.977 181.487 20.849 181.554 20.714 C 181.815 20.714 182.075 20.714 182.341 20.714 C 182.341 20.52 182.341 20.325 182.341 20.125 C 182.69 20.218 183.043 20.313 183.398 20.408 C 183.594 20.461 183.788 20.511 183.99 20.567 C 184.501 20.714 184.501 20.714 184.893 20.91 C 185.198 20.893 185.502 20.864 185.805 20.826 C 186.041 20.796 186.041 20.796 186.287 20.765 C 186.411 20.748 186.535 20.732 186.661 20.714 C 186.727 20.973 186.791 21.233 186.859 21.501 C 187.312 21.435 187.767 21.37 188.23 21.305 C 188.297 21.499 188.36 21.693 188.43 21.894 C 188.591 21.851 188.755 21.809 188.924 21.766 C 189.75 21.683 190.377 21.876 191.145 22.151 C 191.274 22.194 191.408 22.24 191.548 22.286 C 192.527 22.624 192.527 22.624 192.75 23.072 C 192.682 23.477 192.682 23.477 192.554 23.97 C 192.512 24.145 192.467 24.321 192.417 24.502 C 192.348 24.778 192.348 24.778 192.272 25.061 C 192.223 25.245 192.178 25.432 192.127 25.622 C 192.009 26.082 191.891 26.543 191.769 27 C 191.651 26.984 191.532 26.968 191.408 26.951 C 191.251 26.931 191.095 26.911 190.933 26.89 C 190.78 26.87 190.623 26.85 190.463 26.829 C 189.995 26.803 189.658 26.844 189.216 27 C 188.997 27.32 188.997 27.32 188.834 27.713 C 188.154 28.901 186.899 29.431 185.677 29.947 C 185.486 29.947 185.29 29.947 185.092 29.947 C 185.116 30.121 185.144 30.296 185.178 30.474 C 185.092 31.127 185.092 31.127 184.781 31.423 C 184.435 31.667 184.086 31.895 183.717 32.107 C 183.771 32.217 183.828 32.327 183.889 32.437 C 183.964 32.58 184.031 32.723 184.107 32.869 C 184.179 33.011 184.255 33.151 184.331 33.297 C 184.501 33.68 184.501 33.68 184.501 34.073 C 184.728 34.064 184.953 34.057 185.187 34.048 C 186.35 34.05 187.57 34.196 188.43 35.054 C 188.43 35.184 188.43 35.314 188.43 35.446 C 188.665 35.399 188.901 35.35 189.143 35.3 C 189.799 35.212 190.138 35.257 190.689 35.632 C 190.852 35.766 191.014 35.898 191.18 36.037 C 191.129 36.312 191.074 36.585 191.02 36.859 C 190.993 37.01 190.963 37.164 190.929 37.322 C 190.508 38.735 189.279 40.061 188.015 40.794 C 187.891 40.852 187.769 40.911 187.645 40.971 C 187.448 41.094 187.257 41.214 187.055 41.34 C 186.875 42.031 186.875 42.031 186.859 42.714 C 186.73 42.91 186.602 43.103 186.465 43.305 C 186.933 43.677 187.263 43.898 187.839 44.09 C 187.97 43.831 188.1 43.572 188.23 43.305 C 188.518 43.3 188.8 43.295 189.08 43.292 C 189.316 43.289 189.316 43.289 189.559 43.286 C 190.001 43.305 190.001 43.305 190.59 43.501 C 190.584 45.288 190.338 46.509 189.456 48.062 C 189.08 48.911 189.203 49.487 189.411 50.376 C 189.631 50.344 189.85 50.312 190.077 50.278 C 191.126 50.269 191.665 50.856 192.401 51.547 C 192.933 51.936 193.219 52.034 193.839 52.192 C 194.562 52.413 194.853 52.611 195.213 53.277 C 195.347 53.568 195.475 53.862 195.599 54.158 C 196.248 55.546 196.881 56.478 198.251 57.252 C 197.763 58.44 196.732 59.285 195.698 60.001 C 194.579 60.296 193.617 60.005 192.554 59.608 C 192.016 59.576 192.016 59.576 191.575 59.608 C 191.508 59.091 191.441 58.571 191.375 58.037 C 191.634 57.973 191.893 57.907 192.16 57.841 C 192.118 57.723 192.072 57.607 192.025 57.485 C 191.998 57.272 191.998 57.272 191.966 57.055 C 192.258 56.733 192.258 56.733 192.554 56.467 C 191.884 55.514 191.156 54.61 190.395 53.729 C 190.235 53.544 190.077 53.36 189.913 53.17 C 189.333 52.666 188.991 52.571 188.23 52.537 C 187.778 52.699 187.778 52.699 187.446 52.93 C 187.641 53.084 187.834 53.239 188.036 53.396 C 188.23 53.567 188.424 53.737 188.624 53.912 C 188.624 54.042 188.624 54.173 188.624 54.305 C 188.215 54.499 187.81 54.69 187.399 54.882 C 187.057 55.043 187.057 55.043 186.705 55.207 C 186.072 55.483 186.072 55.483 185.615 55.594 C 185.242 55.657 185.242 55.657 184.967 56.087 C 184.331 56.602 183.879 56.598 183.076 56.571 C 182.266 56.413 181.666 56.023 180.99 55.564 C 179.841 54.803 178.527 55.076 177.231 55.287 C 177.183 55.421 177.137 55.555 177.087 55.694 C 176.791 56.381 176.431 56.999 176.053 57.644 C 175.926 57.644 175.796 57.644 175.661 57.644 C 175.661 57.774 175.661 57.903 175.661 58.037 C 175.006 58.255 174.457 58.283 173.771 58.32 C 171.47 58.451 171.47 58.451 169.602 59.642 C 167.637 61.307 165.15 62.292 162.815 63.315 C 161.958 63.69 161.104 64.07 160.253 64.46 C 160.022 64.56 160.022 64.56 159.786 64.663 C 158.79 65.122 158.23 65.594 157.589 66.483 C 157.199 66.355 156.811 66.225 156.411 66.091 C 156.358 66.225 156.304 66.359 156.251 66.496 C 155.986 67.152 155.707 67.799 155.429 68.448 C 155.687 68.578 155.946 68.708 156.214 68.841 C 156.214 68.971 156.214 69.101 156.214 69.234 C 155.826 69.299 155.436 69.365 155.036 69.431 C 155.009 69.578 154.983 69.724 154.956 69.877 C 154.921 70.069 154.887 70.263 154.852 70.462 C 154.817 70.653 154.782 70.845 154.748 71.042 C 154.662 71.492 154.563 71.933 154.447 72.376 C 154.77 72.376 155.095 72.376 155.429 72.376 C 155.288 72.608 155.288 72.608 155.146 72.844 C 154.968 73.141 154.797 73.442 154.643 73.752 C 154.835 74.342 154.986 74.687 155.429 75.128 C 155.431 75.595 155.417 76.06 155.391 76.526 C 155.36 77.646 155.439 78.468 156.132 79.379 C 156.507 79.739 156.908 79.854 157.393 80.038 C 157.886 80.534 158.33 81.066 158.767 81.61 C 158.832 81.479 158.897 81.352 158.963 81.217 C 159.756 81.529 160.54 81.861 161.322 82.199 C 161.304 83.241 161.304 83.241 161.125 83.77 C 160.449 84.163 160.449 84.163 160.073 84.333 C 159.641 84.632 159.595 84.872 159.48 85.379 C 159.44 85.626 159.399 85.873 159.357 86.128 C 159.293 86.193 159.228 86.258 159.16 86.325 C 159.114 86.656 159.08 86.987 159.05 87.319 C 159.034 87.499 159.017 87.68 159 87.865 C 158.988 88.006 158.975 88.146 158.963 88.288 C 158.574 88.224 158.186 88.16 157.786 88.092 C 157.786 88.548 157.786 89 157.786 89.466 C 157.527 89.466 157.266 89.466 157 89.466 C 157 89.792 157 90.115 157 90.451 C 156.318 90.209 155.931 89.971 155.429 89.466 C 155.102 89.336 154.774 89.204 154.447 89.073 C 154.381 88.945 154.317 88.815 154.249 88.681 C 153.236 90.505 152.699 92.584 153.184 94.663 C 153.384 95.303 153.587 95.841 153.965 96.398 C 154.29 97.008 154.309 97.341 154.28 98.026 C 154.272 98.339 154.272 98.339 154.263 98.659 C 154.245 99.091 154.228 99.522 154.209 99.956 C 154.176 101.284 154.34 102.269 154.844 103.497 C 155.133 104.261 155.222 105.026 155.318 105.834 C 155.747 108.918 156.862 111.106 158.916 113.425 C 159.017 113.542 159.118 113.658 159.224 113.778 C 159.315 113.882 159.407 113.985 159.501 114.092 C 159.749 114.414 159.749 114.414 159.956 114.834 C 160.199 115.31 160.447 115.381 160.929 115.593 C 161.722 116.18 162.415 116.86 163.058 117.605 C 164.215 118.948 165.005 119.822 166.822 120.111 C 169.43 120.746 171.074 122.127 172.972 123.946 C 173.743 124.682 174.551 125.352 175.386 126.019 C 176.417 126.847 177.391 127.735 178.357 128.64 C 178.897 129.14 179.438 129.635 179.983 130.128 C 180.126 130.26 180.265 130.39 180.416 130.524 C 181.626 131.546 184.043 133.273 185.677 133.273 C 185.808 133.014 185.938 132.754 186.072 132.487 C 187.011 132.662 187.59 133.179 188.23 133.861 C 188.328 134.065 188.427 134.266 188.527 134.476 C 188.785 135.114 188.785 135.114 189.536 135.348 C 189.907 135.534 189.907 135.534 190.199 135.826 C 190.268 136.341 190.268 136.341 190.274 136.972 C 190.356 138.453 190.801 139.601 191.402 140.947 C 191.506 141.19 191.609 141.432 191.712 141.676 C 192.051 142.478 192.404 143.278 192.75 144.077 C 195.965 151.458 195.965 151.458 196.597 155.033 C 196.955 156.942 197.579 158.783 198.209 160.614 C 198.412 161.252 198.57 161.876 198.718 162.529 C 199.095 164.227 199.731 165.656 200.556 167.183 C 200.842 167.718 201.112 168.261 201.384 168.803 C 201.589 169.208 201.793 169.613 201.994 170.018 C 202.092 170.21 202.187 170.401 202.282 170.599 C 202.818 171.642 203.357 172.45 204.22 173.246 C 204.663 173.659 205.026 174.13 205.396 174.611 C 206.699 176.216 208.142 177.369 209.881 178.481 C 211.44 179.517 211.44 179.517 211.77 180.368 C 212.161 181.241 212.744 181.781 213.455 182.409 C 213.771 182.775 213.771 182.775 213.771 183.561 C 213.91 183.611 214.05 183.662 214.192 183.716 C 214.781 183.967 215.299 184.269 215.844 184.604 C 216.867 185.215 217.899 185.675 219.014 186.087 C 219.165 186.161 219.312 186.234 219.469 186.309 C 219.661 186.9 219.661 186.9 219.634 187.375 C 219.61 188.011 219.646 188.458 219.86 189.061 C 220.633 189.741 221.5 190.172 222.412 190.633 C 222.705 190.815 222.994 190.999 223.286 191.184 C 224.026 191.6 224.708 191.717 225.542 191.848 C 227.107 192.135 227.931 192.945 228.895 194.168 C 228.96 194.298 229.025 194.427 229.092 194.561 C 230.536 195.278 232.01 195.292 233.598 195.372 C 234.116 195.399 234.633 195.429 235.15 195.458 C 235.379 195.47 235.606 195.481 235.84 195.493 C 236.361 195.543 236.361 195.543 236.555 195.739 C 238.252 196.049 239.731 195.737 241.401 195.406 C 242.616 195.183 243.547 195.15 244.744 195.439 C 246.713 195.886 248.804 195.236 250.741 194.854 C 253.044 194.404 255.271 193.98 257.362 195.323 C 257.548 195.461 257.732 195.598 257.919 195.739 C 258.105 195.876 258.292 196.014 258.481 196.158 C 258.951 196.525 258.951 196.525 259.343 196.919 C 259.343 197.313 259.343 197.708 259.321 198.103 C 259.319 198.554 259.319 198.554 259.736 199.078 C 259.745 199.582 259.745 199.582 259.688 200.147 C 259.669 200.331 259.654 200.519 259.633 200.711 C 259.474 201.604 259.287 201.913 258.566 202.488 C 258.333 202.646 258.101 202.803 257.872 202.958 C 257.753 203.039 257.637 203.12 257.516 203.204 C 256.65 203.793 256.65 203.793 256.201 203.793 C 256.133 204.016 256.133 204.016 256.063 204.247 C 255.76 204.877 255.516 205.03 254.907 205.362 C 254.733 205.464 254.559 205.566 254.379 205.673 C 254.006 205.886 253.633 206.091 253.257 206.295 C 252.264 206.853 252.264 206.853 251.747 207.814 C 251.732 208.697 251.867 209.516 252.224 210.324 C 252.288 210.476 252.352 210.627 252.417 210.782 C 253.053 211.995 253.611 212.629 254.863 213.186 C 255.143 213.319 255.425 213.454 255.703 213.584 C 255.849 213.655 255.996 213.722 256.144 213.794 C 256.899 214.156 257.646 214.542 258.385 214.93 C 258.523 214.999 258.662 215.069 258.804 215.141 C 259.441 215.476 259.944 215.787 260.491 216.272 C 261.265 216.951 262.212 217.192 263.174 217.507 C 265.157 218.189 266.853 219.023 268.604 220.177 C 269.933 221.026 271.3 221.529 272.802 222.012 C 273.258 222.163 273.711 222.312 274.169 222.464 C 274.466 222.561 274.466 222.561 274.774 222.659 C 275.254 222.846 275.254 222.846 275.65 223.24 C 276.172 223.374 276.172 223.374 276.752 223.461 C 276.949 223.494 277.147 223.528 277.349 223.559 C 277.498 223.584 277.653 223.609 277.809 223.633 C 277.809 223.826 277.809 224.023 277.809 224.224 C 278.098 224.311 278.39 224.397 278.677 224.487 C 278.859 224.54 279.042 224.593 279.225 224.649 C 279.557 224.747 279.891 224.844 280.225 224.936 C 282.49 225.557 284.388 226.53 286.316 227.858 C 286.624 228.071 286.624 228.071 286.945 228.288 C 288.235 229.2 289.424 230.137 290.368 231.419 C 290.747 231.853 291.009 232.044 291.499 232.324 C 292.174 232.718 292.629 233.155 293.141 233.738 C 294.414 235.056 296.092 235.489 297.784 236.055 C 299.448 236.617 300.957 237.291 302.299 238.455 C 303.204 239.231 304.218 239.354 305.374 239.479 C 305.773 239.531 305.773 239.531 306.49 239.743 C 306.918 240.332 306.918 240.332 307.275 240.919 C 307.728 241.139 307.728 241.139 308.207 241.193 C 308.363 241.217 308.523 241.241 308.682 241.265 C 308.862 241.292 308.862 241.292 309.039 241.313 C 309.08 241.592 309.08 241.592 309.116 241.878 C 309.185 242.51 309.185 242.51 309.632 242.883 C 309.605 243.112 309.573 243.338 309.546 243.573 C 309.533 244.628 310.087 245.193 310.794 245.928 C 311.622 246.601 312.526 247.028 313.486 247.492 C 314.959 248.24 315.88 249.267 316.901 250.545 C 317.138 250.825 317.381 251.104 317.626 251.379 C 317.73 251.504 317.833 251.629 317.944 251.755 C 318.306 252.151 318.691 252.504 319.087 252.864 C 320.312 254.082 320.866 255.52 320.98 257.22 C 321.052 257.84 321.277 258.282 321.613 258.797 C 322.015 259.023 322.015 259.023 322.399 259.187 C 322.421 259.503 322.439 259.819 322.451 260.132 C 322.459 260.309 322.466 260.488 322.478 260.665 C 322.399 261.152 322.399 261.152 322.02 261.455 C 321.887 261.549 321.753 261.646 321.613 261.741 C 321.435 262.17 321.435 262.17 321.332 262.638 C 321.192 263.116 321.192 263.116 321.024 263.511 C 320.523 263.745 320.523 263.745 320.043 263.902 C 319.788 264.395 319.788 264.395 319.649 265.081 C 319.602 265.237 319.553 265.39 319.502 265.55 C 319.082 266.998 318.979 268.38 318.973 269.875 C 318.955 270.66 318.921 271.075 318.503 271.758 C 318.08 272.152 318.08 272.152 317.451 272.4 C 316.614 272.346 316.506 272.239 315.904 271.71 C 315.14 271.049 314.581 270.86 313.585 270.705 C 312.011 270.43 311.164 269.693 310.023 268.615 C 309.868 268.492 309.708 268.365 309.546 268.236 C 308.33 267.255 307.536 266.107 306.881 264.688 C 306.881 264.494 306.881 264.299 306.881 264.099 C 307.141 264.034 307.401 263.971 307.669 263.902 C 307.669 263.772 307.669 263.642 307.669 263.511 C 307.389 263.419 307.389 263.419 307.102 263.326 C 306.49 263.116 306.49 263.116 306.096 262.92 C 306.096 262.725 306.096 262.533 306.096 262.331 C 306.255 262.241 306.411 262.153 306.572 262.064 C 307.102 261.789 307.102 261.789 307.275 261.308 C 307.275 260.373 306.52 259.831 305.891 259.203 C 305.326 258.596 305.047 258.226 305.06 257.374 C 305.078 257.13 305.097 256.886 305.115 256.634 C 304.784 255.899 304.425 255.475 303.74 255.063 C 303.162 254.904 302.575 254.815 301.983 254.732 C 301.814 254.709 301.648 254.681 301.478 254.657 C 299.854 254.429 298.278 254.383 296.646 254.555 C 294.257 254.788 294.257 254.788 293.572 254.227 C 293.475 254.134 293.374 254.045 293.27 253.947 C 292.826 253.604 292.44 253.565 291.893 253.469 C 290.516 253.174 289.466 252.47 288.317 251.694 C 287.345 251.051 286.64 250.798 285.467 250.743 C 285.664 250.157 285.858 249.577 286.058 248.975 C 286.386 248.908 286.707 248.845 287.041 248.776 C 286.912 248.584 286.782 248.388 286.646 248.186 C 285.947 248.138 285.947 248.138 285.272 248.186 C 285.143 247.865 285.014 247.54 284.882 247.206 C 282.983 246.884 281.662 247.209 280.046 248.235 C 278.832 249.131 278.077 250.296 277.34 251.589 C 277.045 252.079 276.725 252.529 276.383 252.982 C 275.821 253.776 275.372 254.594 274.969 255.479 C 274.912 255.602 274.854 255.722 274.797 255.848 C 274.566 256.355 274.342 256.855 274.115 257.361 C 273.498 258.75 272.984 259.89 271.668 260.731 C 271.161 261.064 270.944 261.371 270.737 261.939 C 270.755 262.488 270.797 262.962 270.884 263.497 C 270.907 263.635 270.924 263.769 270.944 263.908 C 271.031 264.518 271.137 265.111 271.295 265.706 C 271.327 266.26 271.327 266.26 270.998 266.776 C 270.767 267.03 270.767 267.03 270.529 267.292 C 269.672 268.266 269.013 269.259 268.381 270.385 C 268.274 270.549 268.168 270.715 268.057 270.885 C 267.672 271.581 267.638 272.161 267.79 272.94 C 268.048 273.268 268.312 273.596 268.577 273.922 C 268.643 274.665 268.616 275.176 268.381 275.887 C 268.553 275.94 268.727 275.991 268.908 276.045 C 269.557 276.279 269.557 276.279 269.955 276.59 C 270.713 276.952 271.295 276.888 272.124 276.861 C 274.888 276.785 274.888 276.785 275.803 277.617 C 276.185 278.05 276.5 278.502 276.807 278.986 C 277.223 279.622 277.593 279.972 278.201 280.404 C 278.324 280.491 278.441 280.581 278.565 280.675 C 279.34 281.193 279.99 281.454 280.901 281.643 C 281.852 281.869 281.852 281.869 282.219 282.342 C 282.414 282.76 282.414 282.76 282.547 283.165 C 282.856 283.852 283.38 284.083 284.057 284.365 C 284.247 284.432 284.439 284.499 284.635 284.568 C 284.827 284.634 285.024 284.699 285.221 284.768 C 285.44 284.845 285.44 284.845 285.666 284.923 C 285.603 285.855 285.387 286.505 284.966 287.341 C 284.478 288.378 284.229 289.284 284.487 290.421 C 284.724 290.791 284.997 291.111 285.275 291.447 C 285.537 291.92 285.476 292.169 285.36 292.69 C 285.209 293.204 285.03 293.691 284.842 294.191 C 284.657 294.839 284.712 295.267 284.882 295.921 C 284.945 295.985 285.012 296.052 285.076 296.119 C 285.085 296.51 285.085 296.904 285.076 297.295 C 285.201 297.337 285.324 297.376 285.45 297.419 C 285.612 297.473 285.769 297.524 285.937 297.581 C 286.098 297.629 286.255 297.683 286.418 297.741 C 286.846 297.884 286.846 297.884 287.24 298.081 C 287.24 298.276 287.24 298.473 287.24 298.673 C 286.945 298.883 286.945 298.883 286.646 299.099 C 286.234 299.416 286.078 299.551 285.983 300.066 C 285.98 300.55 285.98 300.55 286.058 301.224 C 285.928 301.224 285.8 301.224 285.666 301.224 C 285.621 301.332 285.579 301.443 285.531 301.552 C 285.197 302.145 284.773 302.562 284.292 303.042 C 284.117 303.218 283.941 303.392 283.762 303.572 C 283.31 303.977 283.31 303.977 282.917 303.977 C 282.853 303.587 282.783 303.196 282.72 302.797 C 282.502 302.902 282.502 302.902 282.279 303.004 C 281.692 303.202 281.506 303.242 280.952 302.992 C 280.84 302.857 280.723 302.725 280.607 302.583 C 280.194 302.156 280.194 302.156 279.636 302.174 C 277.068 302.62 274.939 303.483 272.828 305.001 C 272.368 305.313 271.992 305.479 271.474 305.658 C 270.631 306.049 270.267 306.792 269.832 307.571 C 269.757 307.698 269.685 307.823 269.609 307.953 C 269.546 308.079 269.482 308.202 269.413 308.332 C 269.359 308.444 269.299 308.555 269.242 308.669 C 269.124 309.313 269.368 309.839 269.557 310.459 C 269.627 310.907 269.681 311.358 269.726 311.813 C 269.75 312.065 269.777 312.317 269.805 312.577 C 269.816 312.709 269.829 312.838 269.837 312.974 C 269.876 313.366 269.918 313.759 269.957 314.15 C 270.397 318.633 270.397 318.633 269.488 319.853 C 269.139 320.269 268.772 320.655 268.39 321.042 C 268.253 321.18 268.117 321.322 267.972 321.465 C 266.962 322.438 266.027 322.96 264.709 323.412 C 262.674 324.11 261.736 325.388 260.601 327.155 C 260.326 327.549 260.027 327.871 259.694 328.213 C 258.975 329.025 258.899 329.88 258.768 330.923 C 258.484 332.695 258.072 333.95 256.986 335.406 C 256.888 335.547 256.794 335.691 256.695 335.836 C 256.115 336.61 255.599 336.976 254.644 337.148 C 253.963 337.189 253.331 337.099 252.664 336.976 C 251.782 336.835 251.036 336.766 250.148 336.865 C 249.983 336.886 249.819 336.901 249.647 336.919 C 249.301 336.958 248.952 336.996 248.605 337.039 C 247 337.148 245.848 336.621 244.61 335.601 C 244.043 334.934 243.559 334.26 243.237 333.442 C 243.287 333.02 243.287 333.02 243.431 332.657 C 243.693 332.069 243.693 332.069 243.431 331.526 C 243.155 330.629 243.314 329.906 243.58 329.022 C 243.651 328.301 243.332 327.804 243.038 327.155 C 242.947 327.351 242.855 327.549 242.757 327.753 C 241.88 329.581 240.899 331.216 239.699 332.852 C 239.506 333.135 239.317 333.414 239.121 333.697 C 238.99 333.875 238.853 334.046 238.718 334.227 C 238.588 334.227 238.456 334.227 238.326 334.227 C 238.271 334.343 238.215 334.459 238.161 334.576 C 237.945 334.988 237.71 335.328 237.427 335.691 C 237.334 335.818 237.234 335.941 237.137 336.07 C 236.937 336.329 236.742 336.591 236.536 336.847 C 235.948 337.626 235.7 338.149 235.575 339.136 C 235.302 339.457 235.302 339.457 234.983 339.726 C 234.786 339.981 234.586 340.239 234.395 340.501 C 234.299 340.63 234.199 340.764 234.101 340.898 C 234.004 341.031 233.905 341.164 233.804 341.299 C 233.698 341.425 233.589 341.552 233.474 341.684 C 233.159 342.175 233.174 342.427 233.216 343.005 C 233.249 344.028 233.064 344.888 232.625 345.817 C 232.497 345.947 232.368 346.076 232.236 346.209 C 232.218 346.582 232.212 346.954 232.212 347.327 C 232.143 348.44 232.143 348.44 231.699 348.985 C 231.279 349.327 231.279 349.327 230.864 349.608 C 230.331 350.055 230.142 350.483 229.878 351.12 C 229.813 351.765 229.813 351.765 229.865 352.439 C 229.874 352.682 229.887 352.928 229.896 353.179 C 229.911 353.434 229.925 353.684 229.939 353.946 C 229.955 354.331 229.955 354.331 229.975 354.722 C 230.002 355.356 230.035 355.988 230.072 356.62 C 230.962 356.953 230.962 356.953 231.901 356.914 C 232.97 357.063 233.382 357.691 234.077 358.47 C 234.395 358.978 234.395 358.978 234.371 359.399 C 234.199 359.763 234.199 359.763 233.804 360.352 C 233.677 360.352 233.547 360.352 233.41 360.352 C 233.331 361.02 233.295 361.529 233.646 362.118 C 234.18 362.766 234.527 363.157 235.379 363.301 C 235.376 363.44 235.373 363.58 235.373 363.724 C 235.417 365.295 235.866 366.372 236.654 367.696 C 236.949 368.209 236.949 368.209 236.949 368.601 C 236.163 368.342 235.379 368.078 234.593 367.816 C 234.527 368.207 234.465 368.595 234.395 368.995 C 234.281 369.007 234.165 369.022 234.05 369.031 C 233.02 369.194 232.362 369.421 231.727 370.268 C 231.354 370.932 231.057 371.616 230.772 372.325 C 230.721 372.455 230.668 372.584 230.611 372.722 C 230.112 374.085 230.343 375.189 230.787 376.558 C 231.092 377.632 231.178 378.569 230.663 379.603 C 230.509 379.597 230.354 379.587 230.199 379.581 C 229.647 379.547 229.647 379.547 229.286 379.996 C 228.844 380.008 228.844 380.008 228.306 379.801 C 228.116 379.569 227.94 379.33 227.764 379.088 C 227.485 378.7 227.485 378.7 227.127 378.425 C 226.649 378.41 226.239 378.498 225.774 378.594 C 225.638 378.602 225.5 378.609 225.359 378.621 C 224.832 378.154 224.832 378.154 224.378 377.64 C 223.5 377.282 222.947 377.518 222.107 377.845 C 221.929 377.927 221.749 378.008 221.565 378.089 C 220.906 378.264 220.666 378.113 220.055 377.836 C 219.735 377.812 219.417 377.803 219.102 377.796 C 218.069 377.717 217.721 377.352 217.061 376.6 C 216.205 375.766 214.966 375.674 213.832 375.502 C 213.065 375.366 212.424 375.228 211.84 374.663 C 211.412 373.991 211.263 373.218 211.058 372.46 C 210.47 370.675 209.544 369.188 208.073 368.015 C 207.872 367.765 207.674 367.509 207.484 367.255 C 206.372 365.948 204.397 365.007 202.711 364.715 C 200.265 364.528 200.265 364.528 197.857 364.87 C 197.22 364.968 197.22 364.968 196.484 364.87 C 196.128 364.58 196.128 364.58 195.758 364.21 C 195.105 363.572 194.675 363.399 193.77 363.301 C 192.312 363.133 191.005 362.457 190.055 361.317 C 189.804 360.941 189.804 360.941 189.57 360.477 C 189.068 359.745 188.427 359.2 187.645 358.783 C 187.318 358.776 186.99 358.776 186.661 358.783 C 186.532 358.652 186.399 358.522 186.271 358.388 C 185.889 358.349 185.889 358.349 185.459 358.352 C 184.469 358.262 184.049 357.87 183.362 357.191 C 182.712 356.626 181.974 356.271 181.204 355.886 C 180.768 355.638 180.768 355.638 180.573 355.244 C 180.419 355.232 180.263 355.221 180.108 355.209 C 179.85 355.132 179.85 355.132 179.589 355.049 C 179.438 354.725 179.294 354.396 179.171 354.062 C 178.866 353.367 178.34 352.845 177.822 352.3 C 177.737 352.19 177.652 352.089 177.563 351.981 C 176.71 351.287 175.182 351.299 174.117 351.337 C 173.716 351.383 173.312 351.445 172.911 351.514 C 172.82 351.349 172.725 351.18 172.628 351.009 C 171.857 349.604 171.857 349.604 170.554 348.81 C 170.094 348.762 170.094 348.762 169.57 348.762 C 169.332 348.75 169.091 348.738 168.842 348.726 C 167.334 348.668 165.992 348.788 164.535 349.222 C 164.072 349.352 164.072 349.352 163.482 349.352 C 163.145 348.907 162.852 348.477 162.56 348.001 C 162.48 347.873 162.397 347.745 162.313 347.613 C 161.714 346.659 161.714 346.659 161.714 346.209 C 161.483 346.193 161.483 346.193 161.247 346.178 C 160.143 346.061 159.32 345.943 158.535 345.117 C 157.979 344.382 157.896 343.843 157.873 342.945 C 157.721 342.135 157.19 341.565 156.684 340.938 C 156.595 340.795 156.503 340.658 156.411 340.514 C 156.607 339.925 156.607 339.925 157.196 339.53 C 157.152 339.4 157.108 339.265 157.06 339.127 C 157.005 338.952 156.947 338.778 156.889 338.597 C 156.832 338.426 156.776 338.251 156.716 338.074 C 156.602 337.544 156.596 337.277 156.802 336.779 C 157.131 336.582 157.457 336.387 157.786 336.191 C 158.43 335.385 158.486 334.639 158.57 333.637 C 158.376 333.508 158.181 333.377 157.982 333.246 C 158.047 333.05 158.112 332.858 158.177 332.657 C 158.563 332.527 158.947 332.395 159.334 332.268 C 159.824 332.031 160.029 331.775 160.352 331.339 C 160.631 330.975 160.631 330.975 160.929 330.692 C 161.665 330.617 161.665 330.617 162.304 330.692 C 162.433 330.626 162.562 330.559 162.696 330.494 C 162.826 329.897 162.826 329.897 162.893 329.318 C 163.476 329.251 164.06 329.187 164.659 329.118 C 164.693 328.541 164.693 328.541 164.501 328.074 C 164.459 327.449 164.553 327.362 164.944 326.898 C 165.109 326.722 165.276 326.549 165.446 326.368 C 166.036 326.564 166.036 326.564 166.233 326.959 C 166.73 327.088 166.73 327.088 167.215 327.155 C 167.251 327.365 167.287 327.57 167.323 327.787 C 167.648 329.438 167.951 330.541 169.332 331.616 C 169.979 331.992 170.324 332.124 171.063 331.94 C 172.098 331.55 173.009 331.164 173.893 330.494 C 173.698 329.847 173.504 329.196 173.304 328.532 C 173.563 328.399 173.822 328.27 174.089 328.135 C 174.117 328.014 174.146 327.894 174.176 327.768 C 174.351 327.11 174.691 326.904 175.268 326.564 C 176.228 326.601 177.099 326.889 178.018 327.155 C 178.215 327.155 178.409 327.155 178.608 327.155 C 178.673 326.829 178.737 326.507 178.805 326.174 C 179.165 326.15 179.165 326.15 179.529 326.122 C 180.342 326.027 180.751 325.743 181.357 325.19 C 181.487 325.19 181.618 325.19 181.748 325.19 C 181.827 325.403 181.905 325.62 181.984 325.84 C 182.284 326.558 182.63 326.79 183.322 327.155 C 183.573 327.909 183.531 328.52 183.519 329.318 C 184.474 329.664 184.474 329.664 185.459 329.56 C 185.903 329.351 185.903 329.351 186.072 328.923 C 187.399 329.094 187.399 329.094 187.839 329.318 C 187.857 329.624 187.863 329.927 187.863 330.238 C 187.931 330.99 187.931 330.99 188.306 331.625 C 188.725 331.943 189.149 332.201 189.611 332.46 C 189.808 332.58 190.008 332.708 190.211 332.832 C 191.966 333.875 193.15 334.112 195.108 333.616 C 196.019 333.316 196.766 332.842 197.573 332.332 C 198.514 331.81 199.728 331.519 200.803 331.673 C 201.071 331.864 201.332 332.06 201.592 332.261 C 202.075 332.439 202.075 332.439 202.572 332.46 C 202.758 332.362 202.758 332.362 202.948 332.261 C 203.423 332.037 203.652 332.043 204.171 332.115 C 204.325 332.137 204.479 332.157 204.639 332.178 C 205.119 332.261 205.587 332.371 206.057 332.485 C 207.313 332.741 208.856 332.839 210.037 332.268 C 210.143 332.198 210.248 332.128 210.357 332.055 C 211.061 331.649 211.202 331.646 211.965 331.699 C 213.75 331.742 215.763 331.305 217.149 330.127 C 217.699 329.572 218.216 329.002 218.708 328.393 C 219.01 328.018 219.3 327.668 219.661 327.351 C 220.2 327.341 220.2 327.341 220.645 327.549 C 221.403 327.802 221.743 327.638 222.501 327.402 C 222.721 327.331 222.943 327.265 223.171 327.194 C 223.734 326.981 224.123 326.757 224.575 326.368 C 224.702 326.513 224.702 326.513 224.835 326.664 C 225.659 327.498 226.209 327.831 227.398 327.89 C 227.597 327.888 227.798 327.888 228.004 327.888 C 228.252 327.916 228.252 327.916 228.502 327.94 C 228.632 328.135 228.762 328.331 228.895 328.532 C 230.202 328.338 231.218 327.807 232.04 326.763 C 232.38 325.889 232.485 325.211 232.258 324.297 C 232.185 324.137 232.114 323.978 232.04 323.815 C 232.62 323.523 233.168 323.608 233.804 323.621 C 234.199 324.432 234.216 325.082 234.199 325.976 C 236.25 325.521 237.856 324.958 239.452 323.551 C 240.246 322.88 240.806 322.723 241.846 322.758 C 242.412 322.862 242.813 323.111 243.287 323.417 C 244.392 324.072 245.916 324.229 247.165 324.012 C 247.773 323.572 247.773 323.572 248.146 323.029 C 248.211 322.963 248.275 322.901 248.344 322.832 C 248.44 322.341 248.522 321.844 248.603 321.349 C 248.753 320.812 248.928 320.651 249.328 320.278 C 249.493 319.91 249.493 319.91 249.607 319.52 C 249.8 318.966 249.932 318.687 250.318 318.23 C 250.933 317.413 251.139 316.476 251.051 315.461 C 250.865 314.869 250.613 314.603 250.161 314.178 C 250.02 314.045 249.881 313.909 249.733 313.772 C 249.286 313.369 248.828 312.98 248.344 312.619 C 248.562 311.792 248.759 311.058 249.314 310.396 C 250.087 309.969 250.892 309.749 251.74 309.491 C 252.318 309.313 252.318 309.313 252.691 308.751 C 253.133 308.202 253.296 308.2 253.98 308.112 C 254.847 308.058 255.567 308.215 256.402 308.438 C 256.833 308.534 256.833 308.534 257.356 308.236 C 257.492 308.125 257.631 308.017 257.771 307.905 C 257.967 307.839 258.159 307.776 258.361 307.706 C 258.385 307.514 258.41 307.318 258.437 307.12 C 258.508 306.587 258.617 306.131 258.768 305.609 C 259.047 304.555 258.982 303.483 258.951 302.403 C 258.743 302.304 258.535 302.198 258.319 302.096 C 257.534 301.642 257.095 301.058 256.668 300.267 C 256.592 300.132 256.521 299.994 256.438 299.855 C 255.019 297.073 254.779 294.007 254.608 290.945 C 254.412 288.033 253.648 284.823 251.919 282.429 C 251.789 282.252 251.664 282.07 251.533 281.887 C 251.111 281.355 251.111 281.355 250.485 281.019 C 249.775 280.497 249.607 279.977 249.387 279.166 C 249.314 278.912 249.238 278.656 249.162 278.404 C 249.111 278.217 249.111 278.217 249.055 278.028 C 248.81 277.273 248.474 276.548 248.131 275.832 C 247.788 274.805 247.719 273.71 247.586 272.641 C 247.565 272.462 247.539 272.279 247.514 272.096 C 247.496 271.933 247.474 271.77 247.453 271.603 C 247.376 271.119 247.376 271.119 246.97 270.582 C 247.04 270.024 247.183 269.544 247.361 269.011 C 247.128 268.359 246.778 267.761 246.454 267.156 C 246.364 266.989 246.281 266.819 246.187 266.646 C 245.693 265.706 245.263 265.144 244.412 264.491 C 244.412 264.232 244.412 263.974 244.412 263.705 C 244.153 263.642 243.895 263.577 243.628 263.511 C 243.628 263.381 243.628 263.253 243.628 263.116 C 243.434 263.116 243.24 263.116 243.038 263.116 C 243.103 262.923 243.171 262.728 243.237 262.529 C 242.961 262.515 242.686 262.509 242.412 262.502 C 242.186 262.497 242.186 262.497 241.951 262.49 C 241.079 262.56 240.622 262.768 240.039 263.426 C 239.747 263.82 239.456 264.211 239.165 264.605 C 238.662 265.141 238.456 265.234 237.734 265.276 C 237.131 265.281 236.555 265.231 235.969 265.081 C 235.705 264.818 235.442 264.557 235.184 264.296 C 234.641 264.223 234.156 264.256 233.61 264.296 C 233.39 262.969 233.39 262.969 233.61 262.529 C 232.824 261.549 232.2 260.915 231.057 260.366 C 230.924 260.16 230.787 259.954 230.654 259.742 C 230.426 259.405 230.426 259.405 230.072 259.187 C 229.477 259.157 229.477 259.157 228.821 259.214 C 227.647 259.278 227.647 259.278 227.049 258.857 C 226.144 257.822 226.144 257.822 226.144 257.223 C 225.996 257.193 225.845 257.16 225.693 257.13 C 224.099 256.754 224.099 256.754 223.528 256.155 C 223.397 255.653 223.397 255.653 223.52 255.223 C 223.789 254.868 223.789 254.868 224.378 254.474 C 224.45 253.977 224.45 253.977 224.438 253.421 C 224.472 252.828 224.472 252.828 224.575 252.314 C 225.175 251.859 225.175 251.859 225.752 251.527 C 225.876 250.581 225.629 249.937 225.226 249.086 C 225.175 248.968 225.118 248.851 225.063 248.731 C 224.95 248.488 224.832 248.24 224.713 247.997 C 224.537 247.627 224.366 247.254 224.192 246.884 C 223.067 244.43 223.067 244.43 221.334 242.393 C 221.19 242.26 221.048 242.129 220.897 241.993 C 220.366 241.65 220.091 241.608 219.469 241.704 C 219.004 242.176 219.004 242.176 218.681 242.688 C 218.551 242.649 218.419 242.61 218.286 242.568 C 217.754 242.429 217.267 242.321 216.715 242.294 C 216.196 242.733 216.196 242.733 215.732 243.278 C 215.148 243.53 214.605 243.678 213.967 243.671 C 213.766 243.55 213.567 243.436 213.36 243.316 C 212.839 243.073 212.647 243.064 212.09 243.238 C 211.509 243.515 210.95 243.819 210.393 244.138 C 210.014 244.348 209.626 244.562 209.244 244.767 C 208.991 244.908 208.991 244.908 208.731 245.058 C 208.212 245.262 207.998 245.245 207.484 245.043 C 207.411 245.169 207.346 245.296 207.274 245.422 C 206.747 245.988 206.335 245.988 205.58 246.075 C 205.347 246.105 205.116 246.135 204.879 246.165 C 204.704 246.187 204.524 246.204 204.34 246.222 C 204.403 245.51 204.473 244.8 204.538 244.062 C 205.647 244.048 206.59 244.041 207.68 244.261 C 207.971 242.995 207.971 242.995 208.27 241.704 C 208.852 241.641 209.437 241.575 210.037 241.508 C 210.08 241.364 210.12 241.22 210.162 241.069 C 210.514 240.365 210.935 240.119 211.608 239.743 C 211.74 239.743 211.868 239.743 212.001 239.743 C 211.933 239.264 211.933 239.264 211.608 238.759 C 211.237 238.57 211.237 238.57 210.798 238.416 C 209.81 238.027 209.294 237.445 208.649 236.62 C 208.23 236.164 207.842 235.892 207.289 235.619 C 206.687 235.571 206.687 235.571 206.109 235.814 C 205.971 236.016 205.831 236.217 205.693 236.428 C 205.459 236.75 205.459 236.75 205.128 236.99 C 204.322 237.039 203.561 236.936 202.77 236.795 C 202.833 237.12 202.9 237.442 202.966 237.776 C 202.123 237.517 201.28 237.257 200.412 236.99 C 200.405 236.789 200.403 236.587 200.396 236.38 C 200.295 233.535 199.62 231.712 197.731 229.55 C 197.093 228.775 196.775 228.106 196.508 227.131 C 195.959 225.179 194.917 223.461 193.392 222.114 C 193.144 221.866 193.144 221.866 193.144 221.474 C 192.223 221.1 191.375 220.848 190.395 220.688 C 190.181 220.616 190.181 220.616 189.965 220.539 C 189.844 220.522 189.73 220.508 189.611 220.489 C 189.261 220.757 189.261 220.757 189.02 221.081 C 189.214 221.2 189.407 221.322 189.611 221.45 C 189.802 221.585 189.998 221.724 190.199 221.866 C 190.199 221.994 190.199 222.125 190.199 222.258 C 187.606 222.73 186.032 221.681 183.907 220.302 C 182.758 219.567 181.766 219.216 180.374 219.31 C 180.244 219.376 180.117 219.441 179.983 219.508 C 179.808 219.523 179.634 219.535 179.453 219.552 C 178.115 219.666 177.362 219.845 176.408 220.822 C 175.601 221.635 175.601 221.635 174.934 221.797 C 174.38 221.778 174.002 221.716 173.5 221.474 C 172.957 220.882 172.786 220.142 172.564 219.387 C 171.996 217.566 170.861 216.299 169.252 215.275 C 168.36 214.893 167.505 214.651 166.541 214.932 C 165.831 215.013 165.576 214.754 165.016 214.328 C 164.847 214.202 164.678 214.073 164.505 213.941 C 164.362 213.836 164.219 213.726 164.072 213.615 C 163.94 213.551 163.812 213.486 163.679 213.42 C 163.614 213.613 163.548 213.809 163.482 214.008 C 162.286 213.821 162.286 213.821 161.838 213.308 C 161.583 212.895 161.351 212.473 161.125 212.043 C 160.205 210.361 159.053 208.954 157.786 207.525 C 157.684 207.41 157.582 207.295 157.478 207.177 C 157.175 206.828 156.866 206.483 156.558 206.139 C 156.465 206.032 156.373 205.928 156.277 205.818 C 155.421 204.879 154.502 204.32 153.294 203.927 C 152.498 203.657 151.73 203.39 151.106 202.812 C 150.796 201.977 150.711 201.224 150.626 200.344 C 150.488 198.973 149.991 197.814 149.143 196.721 C 148.498 196.275 147.879 195.95 147.156 195.647 C 146.499 195.3 146.355 195.001 146 194.365 C 145.614 194.107 145.614 194.107 145.189 193.947 C 144.771 193.773 144.771 193.773 144.428 193.578 C 144.362 193.384 144.298 193.188 144.231 192.989 C 143.478 192.487 143.119 192.588 142.23 192.671 C 141.98 192.693 141.731 192.714 141.472 192.736 C 141.281 192.756 141.089 192.773 140.891 192.793 C 140.808 192.614 140.724 192.436 140.64 192.253 C 140.097 191.121 139.584 190.063 138.769 189.098 C 138.182 188.394 138.006 187.872 137.864 186.98 C 137.568 185.762 136.861 184.634 135.981 183.757 C 135.981 183.627 135.981 183.497 135.981 183.363 C 135.872 183.316 135.762 183.269 135.652 183.221 C 134.907 182.814 134.308 182.229 133.672 181.672 C 132.149 180.48 130.426 180 128.564 179.595 C 128.136 179.498 127.708 179.401 127.28 179.304 C 127.083 179.26 126.887 179.216 126.684 179.169 C 126.104 179.028 125.541 178.856 124.981 178.649 C 125.046 178.909 125.11 179.169 125.176 179.435 C 124.918 179.499 124.659 179.565 124.39 179.632 C 124.39 179.956 124.39 180.279 124.39 180.613 C 122.615 180.769 122.615 180.769 121.862 180.147 C 121.723 179.978 121.587 179.806 121.445 179.632 C 121.311 179.575 121.177 179.519 121.039 179.461 C 120.659 179.239 120.659 179.239 120.505 178.812 C 120.36 177.467 120.36 177.467 120.671 176.884 C 120.942 176.563 120.942 176.563 121.445 176.095 C 121.621 176.248 121.621 176.248 121.801 176.402 C 121.943 176.496 122.083 176.59 122.23 176.686 C 122.425 176.621 122.62 176.556 122.82 176.488 C 123.048 176.031 123.049 175.746 123.053 175.236 C 123.057 175.01 123.057 175.01 123.061 174.778 C 123.012 174.286 122.868 173.968 122.623 173.542 C 122.235 173.542 121.846 173.542 121.445 173.542 C 121.407 173.404 121.368 173.268 121.329 173.127 C 121.253 172.859 121.253 172.859 121.174 172.584 C 121.1 172.318 121.1 172.318 121.023 172.046 C 120.884 171.548 120.884 171.548 120.463 171.186 C 120.463 170.99 120.463 170.796 120.463 170.595 C 120.289 170.544 120.114 170.49 119.934 170.437 C 118.771 170.018 118.771 170.018 118.301 169.613 C 118.15 169.173 118.15 169.173 118.02 168.656 C 117.744 167.602 117.453 167.249 116.534 166.667 C 115.675 166.203 114.996 166.053 114.03 165.943 C 112.621 165.741 111.706 165.015 110.642 164.113 C 110.705 163.918 110.77 163.724 110.837 163.524 C 110.966 163.468 111.094 163.413 111.228 163.357 C 111.673 163.16 111.673 163.16 111.786 162.641 C 111.813 162.45 111.839 162.259 111.868 162.062 C 111.898 161.872 111.927 161.682 111.957 161.486 C 112.026 160.96 112.026 160.96 112.015 160.381 C 111.681 160.099 111.681 160.099 111.254 159.866 C 111.112 159.782 110.972 159.698 110.827 159.611 C 110.091 159.202 109.625 159.175 108.775 159.178 C 108.546 159.177 108.317 159.177 108.081 159.175 C 107.511 159.162 107.511 159.162 107.104 159.399 C 106.976 159.895 106.976 159.895 106.908 160.381 C 106.555 160.303 106.204 160.221 105.853 160.135 C 105.657 160.09 105.461 160.044 105.259 159.997 C 104.747 159.792 104.747 159.792 104.491 159.455 C 104.321 158.892 104.269 158.364 104.232 157.778 C 104.217 157.567 104.203 157.354 104.187 157.137 C 104.178 156.975 104.169 156.814 104.159 156.648 C 104.28 156.605 104.402 156.561 104.529 156.514 C 105.097 156.16 105.139 155.894 105.301 155.25 C 105.87 152.475 105.875 148.323 104.354 145.844 C 104.189 145.654 104.022 145.464 103.851 145.267 C 103.149 144.385 102.98 143.621 102.98 142.506 C 102.72 142.506 102.461 142.506 102.193 142.506 C 102.133 142.313 102.133 142.313 102.07 142.118 C 101.751 141.211 101.505 140.536 100.721 139.951 C 99.853 139.289 99.479 138.451 99.248 137.398 C 99.247 137.124 99.252 136.851 99.26 136.577 C 99.28 135.527 99.026 134.596 98.744 133.592 C 98.648 133.247 98.553 132.902 98.461 132.556 C 98.397 132.33 98.397 132.33 98.332 132.101 C 98.265 131.702 98.265 131.702 98.462 131.113 C 98.736 127.53 97.695 124.029 95.437 121.259 C 94.013 119.62 94.013 119.62 92.175 118.54 C 91.768 118.585 91.768 118.585 91.352 118.699 C 90.712 118.798 90.472 118.773 89.899 118.445 C 89.463 118.103 89.049 117.734 88.641 117.362 C 88.38 118.01 88.121 118.657 87.855 119.326 C 87.265 119.128 87.265 119.128 86.909 118.578 C 86.433 117.886 86.01 117.585 85.3 117.152 C 84.466 116.642 83.926 116.174 83.336 115.398 C 82.752 115.067 82.47 114.99 81.801 115.077 C 81.66 115.118 81.518 115.159 81.372 115.2 C 80.782 114.071 80.782 114.071 80.782 113.63 C 80.597 113.58 80.409 113.532 80.218 113.483 C 79.494 113.192 79.537 113.102 79.21 112.45 C 78.886 112.229 78.886 112.229 78.511 112.033 C 77.836 111.664 77.836 111.664 77.639 111.271 C 77.182 111.201 76.723 111.135 76.264 111.075 C 75.626 110.94 75.626 110.94 75.086 110.682 C 74.497 109.739 74.497 109.739 74.497 109.111 C 74.292 109.035 74.292 109.035 74.083 108.959 C 73.446 108.689 72.869 108.36 72.274 108.005 C 72.064 107.881 71.855 107.759 71.638 107.63 C 71.48 107.535 71.32 107.44 71.157 107.343 C 71.157 107.991 71.157 108.64 71.157 109.308 C 70.78 109.152 70.404 108.997 70.028 108.841 C 69.818 108.754 69.609 108.667 69.393 108.578 C 68.921 108.378 68.467 108.168 68.014 107.933 C 68.079 107.544 68.143 107.154 68.211 106.754 C 66.256 106.073 64.284 105.555 62.257 105.136 C 61.754 105.031 61.252 104.924 60.749 104.811 C 60.491 104.755 60.232 104.699 59.972 104.642 C 59.623 104.565 59.623 104.565 59.266 104.485 C 58.527 104.389 57.938 104.433 57.211 104.593 C 56.939 104.847 56.678 105.109 56.425 105.378 C 55.967 105.578 55.509 105.774 55.048 105.967 C 54.721 106.228 54.393 106.489 54.067 106.754 C 53.787 106.904 53.503 107.051 53.22 107.196 C 52.238 107.728 51.397 108.406 50.728 109.308 C 50.602 109.814 50.602 109.814 50.53 110.289 C 50.379 110.466 50.379 110.466 50.225 110.645 C 49.903 111.134 49.911 111.317 49.924 111.888 C 49.929 112.137 49.935 112.388 49.942 112.646 C 49.263 113.008 48.583 113.368 47.905 113.727 C 47.71 113.831 47.518 113.933 47.317 114.039 C 47.133 114.136 46.948 114.236 46.758 114.335 C 46.586 114.425 46.416 114.516 46.24 114.609 C 45.816 114.807 45.816 114.807 45.424 114.807 C 45.1 115.541 44.946 116.228 44.81 117.017 C 44.546 118.251 44.068 118.834 43.186 119.704 C 42.833 120.087 42.833 120.087 42.812 120.568 C 42.865 121.054 42.865 121.054 43.067 121.682 C 42.92 121.768 42.773 121.855 42.622 121.943 C 41.402 122.654 41.402 122.654 40.488 123.697 C 40.011 124.397 39.618 124.443 38.826 124.66 C 38.31 124.841 37.964 125.076 37.53 125.404 C 36.563 126.094 35.528 126.353 34.392 126.64 C 33.858 126.734 33.858 126.734 33.638 126.986 C 33.469 126.975 33.297 126.961 33.122 126.949 C 32.403 126.989 32.038 127.207 31.438 127.587 C 30.894 127.873 30.313 127.888 29.709 127.97 C 29.627 128.073 29.544 128.173 29.459 128.28 C 29.12 128.557 29.12 128.557 28.488 128.515 C 28.247 128.468 28.005 128.422 27.757 128.375 C 26.821 128.193 26.416 128.138 25.583 128.557 C 25.085 128.462 25.085 128.462 24.601 128.164 C 23.945 127.16 23.371 125.94 23.276 124.728 C 23.425 124.031 23.475 123.905 23.976 123.463 C 24.601 123.058 24.601 123.058 25.191 122.861 C 25.175 122.627 25.158 122.391 25.141 122.148 C 25.188 121.716 25.188 121.716 25.387 121.289 C 25.975 120.898 26.566 120.626 27.217 120.353 C 27.768 120.167 27.768 120.167 27.941 119.719 C 27.985 119.416 28.021 119.113 28.051 118.81 C 28.068 118.649 28.084 118.489 28.101 118.323 C 28.113 118.2 28.126 118.078 28.139 117.95 C 28.461 117.821 28.786 117.692 29.12 117.557 C 29.219 116.738 29.12 116.304 28.64 115.655 C 28.552 115.544 28.463 115.434 28.372 115.321 C 28.139 115.005 28.139 115.005 27.941 114.414 C 27.839 114.451 27.739 114.488 27.634 114.525 C 27.154 114.612 27.154 114.612 26.578 114.463 C 25.572 114.282 24.683 114.792 23.775 115.175 C 23.227 115.398 23.227 115.398 22.834 115.398 C 22.769 115.59 22.704 115.787 22.637 115.986 C 22.527 115.958 22.418 115.929 22.306 115.9 C 22.156 115.863 22.006 115.828 21.852 115.79 C 21.694 115.749 21.535 115.708 21.373 115.667 C 20.822 115.586 20.422 115.651 19.888 115.79 C 19.817 115.598 19.817 115.598 19.745 115.403 C 19.622 115.205 19.622 115.205 19.494 115.005 C 19.083 114.896 19.083 114.896 18.623 114.905 C 18.141 114.875 18.141 114.875 17.726 114.807 C 17.382 114.414 17.382 114.414 17.137 114.022 C 16.983 114.002 16.83 113.981 16.67 113.96 C 15.87 113.75 15.591 113.131 15.172 112.45 C 15.057 112.493 14.94 112.535 14.819 112.579 C 14.386 112.646 14.386 112.646 14.072 112.45 C 13.969 112.359 13.866 112.264 13.761 112.168 C 13.178 111.709 12.842 111.612 12.103 111.652 C 11.455 111.686 11.262 111.673 10.655 111.369 C 10.103 110.68 10.109 110.182 10.065 109.308 C 9.878 109.268 9.693 109.226 9.501 109.185 C 8.886 108.915 8.886 108.915 8.653 108.362 C 8.601 108.156 8.547 107.948 8.494 107.737 C 8.09 106.889 7.792 106.673 6.923 106.36 C 6.94 105.846 6.96 105.329 6.984 104.814 C 6.987 104.667 6.991 104.521 6.996 104.37 C 7.016 103.984 7.066 103.6 7.118 103.218 C 7.314 103.088 7.507 102.959 7.708 102.825 C 7.558 102.699 7.408 102.574 7.254 102.445 C 6.457 101.651 6.238 100.623 6.038 99.546 C 6.197 98.817 6.593 98.429 7.118 97.914 C 7.671 97.742 7.671 97.742 8.101 97.718 C 8.425 96.868 8.69 96.142 8.69 95.225 C 8.69 94.293 8.993 93.703 9.623 93.028 C 10.238 92.72 10.763 92.767 11.44 92.807 C 11.31 92.744 11.18 92.678 11.048 92.61 C 10.895 92.182 10.895 92.182 10.754 91.653 C 10.579 91.008 10.44 90.62 10.065 90.057 C 10.135 89.499 10.28 89.02 10.459 88.486 C 9.915 88.148 9.915 88.148 9.279 87.895 C 9.016 88.026 8.755 88.157 8.494 88.288 C 7.068 88.268 5.816 87.654 4.762 86.717 C 4.762 86.588 4.762 86.458 4.762 86.325 C 4.308 86.195 3.854 86.064 3.386 85.932 C 3.096 84.044 3.096 84.044 3.325 83.377 C 3.437 82.956 3.437 82.956 3.105 82.567 C 3.002 82.446 2.901 82.325 2.797 82.199 C 2.797 82.07 2.797 81.94 2.797 81.805 C 2.344 81.742 1.889 81.677 1.421 81.61 C 1.068 80.858 0.99 80.277 1.029 79.451 C 0.835 79.451 0.64 79.451 0.44 79.451 C 0.089 78.701 -0.094 78.113 0.048 77.287 C 0.611 76.87 0.611 76.87 1.226 76.502 C 1.462 76.101 1.462 76.101 1.619 75.716 C 1.736 75.725 1.855 75.734 1.978 75.744 C 3.01 75.811 3.01 75.811 3.89 75.323 C 3.982 75.194 4.076 75.065 4.172 74.93 C 5.199 75.254 6.167 75.597 7.118 76.109 C 7.118 75.656 7.118 75.203 7.118 74.735 C 7.476 74.723 7.476 74.723 7.843 74.71 C 8.586 74.62 8.674 74.555 9.231 73.974 C 9.376 73.77 9.523 73.569 9.671 73.36 C 10.296 72.777 10.799 72.68 11.637 72.573 C 11.832 72.51 12.026 72.445 12.226 72.376 C 12.355 72.442 12.485 72.508 12.619 72.573 C 12.708 72.445 12.797 72.314 12.889 72.18 C 12.995 72.052 13.099 71.921 13.208 71.789 C 13.338 71.789 13.467 71.789 13.601 71.789 C 13.392 70.783 13.163 69.81 12.816 68.841 C 13.139 68.776 13.463 68.712 13.798 68.646 C 13.822 68.519 13.846 68.393 13.872 68.265 C 13.912 68.13 13.953 67.996 13.994 67.86 C 14.124 67.794 14.254 67.729 14.386 67.664 C 14.531 67.208 14.662 66.75 14.779 66.287 C 14.259 66.077 13.742 65.875 13.208 65.698 C 13.111 65.018 13.111 65.018 13.012 64.323 C 12.429 64.259 11.846 64.194 11.244 64.128 C 11.178 63.869 11.114 63.608 11.048 63.342 C 10.557 63.086 10.557 63.086 10.065 62.949 C 10.055 62.741 10.045 62.533 10.036 62.318 C 10.022 62.044 10.007 61.773 9.992 61.499 C 9.985 61.362 9.98 61.225 9.973 61.084 C 9.948 60.258 9.948 60.258 9.475 59.608 C 9.545 58.862 9.686 58.176 9.868 57.448 C 9.22 57.448 8.573 57.448 7.904 57.448 C 7.84 57.124 7.774 56.8 7.708 56.467 C 7.509 56.437 7.311 56.409 7.106 56.38 C 6.229 56.116 5.756 55.606 5.23 54.873 C 4.472 53.296 4.577 51.253 5.115 49.614 C 5.386 49.137 5.562 48.985 6.062 48.768 C 6.81 48.575 7.535 48.58 8.301 48.646 C 8.813 48.597 8.946 48.394 9.279 48.019 C 9.71 47.884 9.71 47.884 10.065 47.823 C 10.065 47.652 10.065 47.482 10.065 47.306 C 10.352 46.34 11.009 45.995 11.834 45.465 C 12.622 46.187 13.101 46.878 13.601 47.823 C 13.812 47.717 14.022 47.612 14.239 47.504 C 14.976 47.233 14.976 47.233 15.455 47.394 C 15.555 47.47 15.658 47.546 15.761 47.626 C 15.891 47.431 16.021 47.237 16.155 47.037 C 16.377 46.98 16.601 46.923 16.83 46.865 C 17.56 46.71 17.56 46.71 17.911 46.129 C 17.98 45.974 18.049 45.821 18.119 45.662 C 18.389 45.719 18.66 45.775 18.93 45.834 C 19.091 45.868 19.253 45.903 19.42 45.938 C 19.888 46.055 19.888 46.055 20.5 46.325 C 21.152 46.467 21.25 46.403 21.801 46.079 C 22.013 45.942 22.223 45.802 22.441 45.662 C 22.57 45.662 22.7 45.662 22.834 45.662 C 22.834 45.401 22.834 45.144 22.834 44.877 C 23.306 44.367 23.558 44.291 24.258 44.249 C 24.436 44.261 24.615 44.273 24.798 44.286 C 24.798 43.963 24.798 43.639 24.798 43.305 C 25.446 43.305 26.095 43.305 26.761 43.305 C 26.761 43.498 26.761 43.693 26.761 43.893 C 26.948 43.851 26.948 43.851 27.134 43.808 C 27.296 43.771 27.456 43.737 27.621 43.698 C 27.781 43.661 27.941 43.624 28.105 43.587 C 28.53 43.501 28.53 43.501 28.923 43.501 C 29.012 43.655 29.102 43.809 29.194 43.968 C 29.535 44.519 29.723 44.626 30.298 44.877 C 30.363 45.005 30.429 45.135 30.494 45.269 C 30.608 45.225 30.722 45.18 30.839 45.134 C 30.984 45.114 31.13 45.093 31.28 45.073 C 31.398 45.166 31.515 45.26 31.637 45.356 C 32.238 45.784 32.719 45.688 33.441 45.662 C 33.571 45.727 33.701 45.791 33.835 45.859 C 33.818 45.663 33.818 45.663 33.8 45.463 C 33.755 44.603 33.744 44.052 34.178 43.292 C 35.129 42.724 36.082 42.734 37.173 42.714 C 37.235 42.529 37.296 42.342 37.357 42.151 C 37.566 41.537 37.566 41.537 37.761 41.144 C 37.726 41.035 37.69 40.925 37.653 40.812 C 37.526 40.141 37.751 39.621 37.959 38.984 C 39.029 38.79 39.029 38.79 40.12 38.591 C 40.185 38.331 40.249 38.071 40.317 37.803 C 40.51 37.675 40.706 37.545 40.905 37.411 C 41.209 36.856 41.357 36.47 41.201 35.84 C 40.725 34.726 40.005 34.217 38.94 33.68 C 39.077 32.643 39.841 32.039 40.554 31.338 C 41.134 30.905 41.397 30.8 42.109 30.808 C 42.359 30.846 42.612 30.887 42.87 30.928 C 42.918 30.743 42.968 30.556 43.018 30.365 C 43.296 29.666 43.405 29.65 44.048 29.357 C 44.078 29.228 44.106 29.098 44.135 28.964 C 44.171 28.835 44.208 28.705 44.243 28.571 C 44.748 28.327 44.748 28.327 45.228 28.179 C 45.097 28.115 44.969 28.05 44.835 27.983 C 44.939 27.235 45.091 26.762 45.62 26.216 C 45.945 26.078 46.273 25.947 46.602 25.822 C 46.834 25.627 46.834 25.627 47.069 25.429 C 47.82 24.855 48.57 24.688 49.501 24.583 C 49.942 24.644 49.942 24.644 50.298 24.914 C 50.53 25.232 50.53 25.232 50.53 25.625 C 50.726 25.69 50.921 25.755 51.12 25.822 C 51.083 26.024 51.048 26.228 51.01 26.436 C 50.89 27.161 50.89 27.161 51.023 27.738 C 51.262 29.304 51.035 30.611 50.138 31.912 C 50.29 32.131 50.29 32.131 50.445 32.354 C 50.728 32.893 50.728 32.893 50.648 33.321 C 50.59 33.498 50.59 33.498 50.53 33.68 C 50.659 33.713 50.787 33.747 50.921 33.783 C 52.017 34.136 52.58 34.444 53.146 35.471 C 53.227 35.643 53.307 35.812 53.39 35.989 C 53.741 36.535 54.045 36.64 54.656 36.823 C 54.591 37.211 54.527 37.6 54.46 38.001 C 54.605 37.989 54.753 37.976 54.902 37.965 C 55.542 38.008 55.732 38.207 56.227 38.591 C 57.014 38.678 57.014 38.678 57.456 38.196 C 57.57 38.068 57.682 37.938 57.8 37.803 C 58.389 38.54 58.389 38.54 58.389 38.984 C 58.584 38.958 58.777 38.933 58.979 38.909 C 59.843 38.909 60.377 39.285 61.03 39.824 C 61.334 40.162 61.334 40.162 61.482 40.776 C 61.306 41.455 61.068 41.667 60.548 42.126 C 60.344 42.448 60.146 42.774 59.959 43.108 C 60.131 43.181 60.131 43.181 60.305 43.256 C 60.746 43.501 60.746 43.501 61.126 43.907 C 61.592 44.344 61.888 44.414 62.514 44.485 C 62.559 44.722 62.603 44.961 62.648 45.208 C 63.071 47.365 63.071 47.365 64.259 49.099 C 64.67 49.286 64.67 49.286 65.265 49.395 C 65.288 49.175 65.312 48.957 65.337 48.731 C 65.461 48.019 65.461 48.019 65.853 47.626 C 65.853 47.431 65.853 47.237 65.853 47.037 C 65.667 47.001 65.481 46.964 65.288 46.926 C 65.086 46.833 64.883 46.739 64.675 46.644 C 64.528 46.191 64.397 45.732 64.282 45.269 C 63.892 44.975 63.892 44.975 63.496 44.877 C 63.719 44.209 63.914 44.08 64.478 43.698 C 64.45 43.556 64.422 43.415 64.392 43.267 C 64.355 43.084 64.32 42.903 64.282 42.714 C 64.233 42.553 64.184 42.391 64.135 42.226 C 64.085 41.733 64.085 41.733 64.27 41.217 C 64.848 40.552 65.409 40.421 66.245 40.162 C 66.117 39.579 65.987 38.995 65.853 38.395 C 66.051 38.283 66.051 38.283 66.255 38.17 C 67.215 37.619 67.971 37.167 68.604 36.232 C 68.696 36.149 68.789 36.062 68.885 35.974 C 69.27 35.562 69.476 35.133 69.72 34.626 C 69.807 34.448 69.891 34.27 69.981 34.089 C 70.044 33.952 70.109 33.819 70.175 33.68 C 70.369 33.68 70.564 33.68 70.764 33.68 C 70.836 33.34 70.836 33.34 70.911 32.992 C 71.063 32.366 71.274 31.859 71.586 31.296 C 71.896 30.717 71.942 30.55 71.906 29.862 C 71.794 29.375 71.794 29.375 71.55 29.162 C 71.524 28.851 71.504 28.54 71.488 28.227 C 71.411 27.324 71.209 26.878 70.568 26.216 C 70.568 26.085 70.568 25.955 70.568 25.822 C 70.693 25.753 70.818 25.685 70.949 25.613 C 71.58 25.019 71.515 24.301 71.55 23.465 C 72.736 23.061 73.625 22.851 74.889 22.875 C 75.181 23.459 75.181 23.459 75.479 24.053 C 75.515 23.936 75.552 23.819 75.59 23.698 C 76.014 23.051 76.524 22.914 77.246 22.68 C 77.725 22.74 77.725 22.74 78.032 22.875 C 77.983 23.15 77.983 23.15 77.935 23.429 C 77.794 24.417 77.815 25.403 77.823 26.398 C 77.825 26.684 77.825 26.684 77.826 26.977 C 77.828 27.442 77.831 27.909 77.836 28.375 C 77.991 28.42 78.145 28.464 78.305 28.509 C 78.816 28.769 78.816 28.769 79.044 29.236 C 79.086 29.414 79.129 29.592 79.173 29.775 C 79.22 29.955 79.266 30.132 79.313 30.317 C 79.359 30.522 79.359 30.522 79.408 30.733 C 79.584 30.758 79.764 30.781 79.946 30.808 C 80.587 30.928 80.587 30.928 80.991 31.15 C 81.62 31.435 82.146 31.187 82.784 31.003 C 83.139 30.928 83.139 30.928 83.533 31.127 C 83.825 30.057 83.825 30.057 84.121 28.964 C 85.103 29.162 85.103 29.162 85.468 29.314 C 86.277 29.397 87.026 28.839 87.723 28.464 C 88.587 28.028 89.044 27.95 90.015 28.179 C 90.154 28.142 90.292 28.102 90.437 28.062 C 90.801 27.983 90.801 27.983 91.178 28.174 C 92.159 28.994 92.159 28.994 92.249 29.91 C 92.225 30.116 92.2 30.324 92.175 30.536 C 92.24 30.6 92.305 30.666 92.373 30.733 C 92.381 31.127 92.381 31.519 92.373 31.912 C 92.889 32.171 93.41 32.43 93.944 32.699 C 93.944 33.087 93.944 33.476 93.944 33.876 C 94.401 33.941 94.401 33.941 94.926 33.876 C 95.381 33.503 95.381 33.503 95.711 33.092 C 95.528 32.806 95.343 32.525 95.157 32.243 C 95.057 32.085 94.954 31.929 94.848 31.766 C 94.554 31.323 94.554 31.323 94.204 31.006 C 93.944 30.733 93.944 30.733 93.859 30.167 C 93.964 29.415 94.237 29.138 94.73 28.571 C 94.973 28.046 94.973 28.046 95.122 27.59 C 94.928 27.614 94.733 27.639 94.532 27.664 C 93.681 27.657 93.129 27.33 92.477 26.797 C 92.005 26.193 92.047 25.688 92.105 24.944 C 92.128 24.78 92.152 24.616 92.175 24.446 C 92.194 24.299 92.213 24.151 92.232 23.997 C 92.25 23.863 92.268 23.726 92.286 23.588 C 92.422 22.918 92.422 22.918 92.231 22.483 C 92.203 22.288 92.203 22.288 92.175 22.089 C 92.492 21.731 92.492 21.731 92.936 21.364 C 93.578 20.774 93.859 20.412 93.944 19.535 C 93.944 19.277 93.944 19.017 93.944 18.75 C 94.297 18.769 94.297 18.769 94.657 18.787 C 95.473 18.791 95.972 18.546 96.694 18.161 C 97.021 18.161 97.349 18.161 97.677 18.161 C 98.125 17.887 98.125 17.887 98.462 17.571 C 99.263 18.957 99.263 18.957 99.198 19.732 C 99.125 19.926 99.125 19.926 99.05 20.125 C 99.209 20.21 99.367 20.295 99.529 20.383 C 100.034 20.714 100.034 20.714 100.229 21.305 C 100.515 21.25 100.515 21.25 100.808 21.194 C 101.667 21.07 102.525 21.105 103.373 21.305 C 103.502 21.433 103.632 21.564 103.766 21.697 C 103.842 21.345 103.915 20.993 103.986 20.641 C 104.027 20.445 104.068 20.249 104.111 20.047 C 104.128 19.878 104.143 19.71 104.159 19.535 C 103.813 19.106 103.813 19.106 103.384 19.105 C 102.987 19.117 102.591 19.13 102.193 19.142 C 101.466 17.059 101.466 17.059 101.8 16.001 C 101.931 15.806 102.06 15.611 102.193 15.412 C 102.132 14.793 102.132 14.793 101.996 14.231 C 102.257 14.038 102.516 13.843 102.784 13.643 C 102.698 13.403 102.614 13.165 102.525 12.918 C 102.417 12.478 102.417 12.478 102.39 12.071 C 102.809 11.618 102.809 11.618 103.373 11.089 C 103.687 10.386 103.929 9.663 104.159 8.929 C 104.92 9.297 104.92 9.297 105.14 9.517 C 106.666 9.694 107.929 9.265 109.303 8.646 C 109.855 8.536 109.855 8.536 110.48 8.866 C 111.034 9.321 111.034 9.321 111.341 9.639 C 111.619 9.948 111.619 9.948 112.09 10.045 C 112.681 10.34 112.754 10.513 113.06 11.078 C 113.511 11.865 113.915 12.115 114.774 12.372 C 114.899 12.402 115.028 12.433 115.159 12.464 C 115.3 12.505 115.443 12.545 115.588 12.588 C 115.705 12.611 115.823 12.636 115.945 12.66 C 116.009 12.596 116.074 12.53 116.141 12.464 C 116.603 12.481 117.066 12.512 117.528 12.55 C 117.782 12.571 118.035 12.591 118.296 12.611 C 118.493 12.627 118.688 12.644 118.892 12.66 C 119.021 12.208 119.15 11.753 119.283 11.286 C 119.608 11.22 119.932 11.156 120.266 11.089 C 120.221 10.891 120.177 10.693 120.131 10.488 C 120.058 9.582 120.275 9.151 120.659 8.339 C 120.691 8.132 120.724 7.925 120.757 7.712 C 120.868 7.094 120.984 6.802 121.445 6.374 C 121.972 6.325 121.972 6.325 122.427 6.374 C 122.439 6.188 122.451 6.001 122.464 5.81 C 122.623 5.195 122.623 5.195 123.041 4.926 C 123.605 4.802 123.605 4.802 124.232 4.827 C 124.958 4.804 125.292 4.696 125.937 4.41 C 126.873 4.013 127.702 3.806 128.713 4.019 C 129.278 4.422 129.278 4.422 129.694 4.802 C 130.381 4.574 130.5 4.382 130.91 3.809 C 131.067 3.593 131.067 3.593 131.225 3.372 C 131.343 3.205 131.343 3.205 131.464 3.035 C 131.802 3.234 132.141 3.432 132.48 3.631 C 132.866 3.849 132.866 3.849 133.428 4.019 C 133.852 3.809 133.852 3.809 134.286 3.514 C 135.125 3.022 135.125 3.022 135.759 3.146 C 135.897 3.239 136.036 3.332 136.177 3.428 C 136.747 3.808 136.942 3.88 137.59 3.944 C 137.836 3.968 138.082 3.992 138.339 4.019 C 138.403 4.276 138.467 4.536 138.534 4.802 C 138.717 4.621 138.717 4.621 138.903 4.435 C 139.517 4.019 139.757 3.954 140.462 3.858 C 141.48 3.693 141.958 3.275 142.681 2.566 C 143.231 2.096 143.727 2 144.428 1.856 C 144.493 1.791 144.556 1.726 144.624 1.66 C 144.847 1.632 145.069 1.603 145.299 1.575 C 146.008 1.533 146.008 1.533 146.392 1.071 C 146.546 1.079 146.701 1.087 146.858 1.095 C 147.405 1.128 147.405 1.128 147.755 0.678 C 148.16 0.285 148.16 0.285 148.773 0.248 C 148.96 0.26 149.147 0.273 149.339 0.285 C 150.029 -0.06 150.748 -0.047 151.499 0.089 Z M 28.139 113.433 C 28.334 114.022 28.334 114.022 28.334 114.022 L 28.139 113.433 Z M 202.375 235.814 C 202.375 235.944 202.375 236.072 202.375 236.205 C 202.572 236.141 202.764 236.075 202.966 236.01 C 202.77 235.947 202.578 235.881 202.375 235.814 Z M 242.843 325.779 C 242.78 325.976 242.713 326.167 242.646 326.368 C 242.843 326.368 243.034 326.368 243.237 326.368 C 243.237 326.174 243.237 325.98 243.237 325.779 C 243.107 325.779 242.978 325.779 242.843 325.779 Z" style="fill: rgb(157, 55, 45); transform-origin: -270.532px -238.114px;" id="object-0"/>
  <path d="M 74.889 218.33 C 75.278 218.524 75.278 218.524 75.675 218.723 C 75.675 218.592 75.675 218.463 75.675 218.33 C 75.805 218.33 75.935 218.33 76.068 218.33 C 76.181 218.516 76.295 218.702 76.412 218.894 C 76.929 219.614 77.216 219.641 78.032 219.901 C 78.411 220.367 78.411 220.367 78.622 220.884 C 78.568 221.353 78.438 221.642 78.229 222.062 C 78.811 222.128 79.395 222.192 79.996 222.258 C 79.996 222.452 79.996 222.648 79.996 222.846 C 79.803 222.912 79.607 222.977 79.408 223.044 C 79.601 223.221 79.601 223.221 79.801 223.401 C 80.193 223.828 80.193 223.828 80.193 224.42 C 80.322 224.42 80.452 224.42 80.587 224.42 C 80.797 225.302 80.857 225.663 80.402 226.469 C 80.269 226.636 80.134 226.801 79.996 226.972 C 80.192 226.972 80.385 226.972 80.587 226.972 C 80.587 227.167 80.587 227.36 80.587 227.561 C 80.823 227.629 80.823 227.629 81.063 227.697 C 81.943 228.021 82.725 228.465 83.533 228.938 C 83.266 229.5 83.012 229.893 82.55 230.312 C 81.967 230.119 81.967 230.119 81.372 229.92 C 81.336 230.095 81.336 230.095 81.298 230.276 C 81.175 230.704 81.175 230.704 80.782 231.294 C 80.92 231.258 81.058 231.223 81.2 231.183 C 81.83 231.087 82.322 231.164 82.943 231.294 C 82.879 231.62 82.813 231.942 82.747 232.277 C 82.905 232.139 83.064 232.002 83.229 231.859 C 83.439 231.68 83.652 231.5 83.864 231.319 C 83.969 231.23 84.072 231.139 84.18 231.045 C 84.787 230.532 85.328 230.164 86.086 229.92 C 86.024 230.096 85.964 230.276 85.902 230.46 C 85.532 231.463 85.532 231.463 85.693 232.474 C 85.111 232.798 84.525 233.121 83.926 233.455 C 83.926 233.585 83.926 233.715 83.926 233.847 C 84.119 233.978 84.313 234.107 84.514 234.24 C 84.709 234.37 84.903 234.5 85.103 234.634 C 85.103 234.762 85.103 234.892 85.103 235.026 C 84.978 235.12 84.853 235.213 84.724 235.308 C 84.263 235.598 84.263 235.598 84.121 236.205 C 83.927 236.205 83.731 236.205 83.533 236.205 C 83.617 236.284 83.698 236.362 83.783 236.443 C 84.582 237.272 84.807 237.805 84.853 238.945 C 84.875 239.4 84.875 239.4 85.313 239.803 C 85.858 240.558 85.727 241.205 85.663 242.11 C 85.708 242.973 86.076 243.463 86.676 244.062 C 86.736 244.225 86.796 244.387 86.859 244.553 C 87.041 245.106 87.041 245.106 87.657 245.437 C 87.545 246.418 87.329 247.266 86.982 248.186 C 86.722 248.885 86.483 249.546 86.321 250.272 C 86.037 251.071 85.611 251.448 84.968 251.959 C 83.706 253.039 82.63 254.263 82.242 255.927 C 82.164 257.323 82.774 258.617 83.507 259.766 C 83.996 260.24 84.481 260.494 85.103 260.758 C 85.347 262.635 84.631 264.175 83.926 265.869 C 84.119 265.933 84.313 265.997 84.514 266.064 C 84.662 266.592 84.662 266.592 84.71 267.243 C 84.581 267.389 84.452 267.535 84.318 267.686 C 83.86 268.314 83.899 268.401 84.012 269.132 C 84.133 269.936 84.078 270.472 83.827 271.244 C 83.503 272.265 83.551 273.05 83.741 274.096 C 83.727 274.731 83.621 274.984 83.342 275.54 C 82.868 276.53 82.865 277.358 82.919 278.44 C 82.966 279.616 82.916 280.609 82.622 281.749 C 82.529 282.299 82.633 282.789 82.726 283.334 C 82.768 284.156 82.433 284.911 82.157 285.669 C 82.041 285.997 81.926 286.327 81.813 286.658 C 81.762 286.8 81.711 286.944 81.658 287.089 C 81.524 287.513 81.524 287.513 81.764 288.066 C 82.092 288.328 82.418 288.59 82.747 288.851 C 82.747 288.981 82.747 289.11 82.747 289.242 C 82.424 289.335 82.424 289.335 82.097 289.426 C 81.611 289.633 81.413 289.763 81.149 290.227 C 80.818 291.18 80.581 292.155 80.901 293.146 C 81 293.683 80.883 293.99 80.695 294.497 C 80.639 294.653 80.584 294.811 80.525 294.973 C 80.481 295.091 80.436 295.211 80.39 295.334 C 80.065 295.334 79.741 295.334 79.408 295.334 C 79.472 295.98 79.537 296.627 79.604 297.295 C 78.896 296.892 78.25 296.462 77.639 295.921 C 77.639 295.791 77.639 295.662 77.639 295.53 C 77.434 295.578 77.229 295.626 77.019 295.677 C 76.264 295.725 76.264 295.725 75.712 295.4 C 75.543 295.244 75.371 295.087 75.196 294.927 C 75.01 294.765 74.826 294.603 74.634 294.434 C 74.46 294.274 74.285 294.119 74.104 293.956 C 72.906 292.957 71.809 292.25 70.175 292.386 C 69.981 292.452 69.786 292.515 69.586 292.582 C 69.52 293.035 69.457 293.49 69.389 293.956 C 68.943 293.748 68.595 293.556 68.222 293.231 C 67.829 292.93 67.829 292.93 67.327 292.976 C 66.634 293.249 66.421 293.504 66.05 294.151 C 65.879 294.816 65.768 295.437 65.853 296.119 C 65.99 296.263 66.126 296.414 66.266 296.565 C 66.638 297.1 66.638 297.1 66.633 297.485 C 66.547 297.933 66.434 298.366 66.308 298.805 C 66.267 298.958 66.229 299.109 66.188 299.266 C 65.904 300.334 65.904 300.334 65.658 300.833 C 65.509 300.788 65.363 300.743 65.211 300.698 C 64.676 300.58 64.676 300.58 64.299 300.875 C 64.182 300.995 64.067 301.115 63.948 301.242 C 63.819 301.371 63.692 301.505 63.56 301.639 C 63.364 301.847 63.364 301.847 63.165 302.059 C 63.031 302.196 62.899 302.334 62.762 302.475 C 62.232 303.024 61.76 303.534 61.334 304.172 C 60.802 304.265 60.802 304.265 60.169 304.272 C 59.856 304.277 59.856 304.277 59.538 304.289 C 58.979 304.172 58.979 304.172 58.609 303.708 C 58.389 303.19 58.389 303.19 58.389 302.599 C 57.74 302.599 57.092 302.599 56.425 302.599 C 56.36 303.185 56.295 303.765 56.227 304.367 C 55.644 304.497 55.061 304.626 54.46 304.761 C 54.46 304.374 54.46 303.986 54.46 303.581 C 54.135 303.581 53.811 303.581 53.477 303.581 C 53.505 303.442 53.533 303.297 53.562 303.149 C 53.777 302.072 53.777 302.072 53.438 301.091 C 53.225 300.916 53.01 300.746 52.791 300.574 C 52.194 299.906 52.191 298.941 52.103 298.081 C 51.649 298.017 51.194 297.951 50.728 297.884 C 50.717 298.017 50.708 298.147 50.698 298.279 C 50.539 300.171 50.539 300.171 50.138 300.833 C 49.478 301.339 49.221 301.423 48.371 301.423 C 47.403 299.756 46.568 298.273 46.407 296.314 C 46.167 296.396 45.927 296.477 45.683 296.558 C 45.008 296.73 44.9 296.741 44.257 296.401 C 43.811 295.872 43.788 295.598 43.656 294.937 C 43.173 294.486 43.173 294.486 42.674 294.151 C 42.93 293.884 43.193 293.626 43.459 293.367 C 43.629 293.189 43.801 293.012 43.975 292.828 C 44.769 292.158 45.612 292.32 46.602 292.386 C 46.602 293.487 46.602 294.591 46.602 295.725 C 46.863 295.271 47.122 294.816 47.388 294.35 C 47.583 294.35 47.776 294.35 47.978 294.35 C 48.042 294.608 48.107 294.867 48.173 295.135 C 48.433 295.072 48.693 295.006 48.959 294.937 C 48.699 294.146 48.385 293.74 47.756 293.195 C 47.196 292.651 47.011 292.452 46.812 291.673 C 47.041 290.844 47.384 290.624 48.051 290.124 C 48.43 289.829 48.43 289.829 48.554 289.206 C 48.563 288.824 48.566 288.446 48.566 288.066 C 48.308 288.066 48.048 288.066 47.78 288.066 C 47.695 287.78 47.695 287.78 47.61 287.486 C 47.458 286.862 47.458 286.862 46.995 286.689 C 47.125 286.041 47.367 285.543 47.695 284.97 C 47.784 284.814 47.874 284.658 47.966 284.496 C 48.034 284.377 48.103 284.258 48.173 284.137 C 47.915 284.069 47.655 284.007 47.388 283.941 C 47.388 282.537 47.91 281.818 48.781 280.738 C 49.312 279.987 49.583 279.351 49.487 278.425 C 49.422 278.14 49.422 278.14 49.352 277.85 C 49.118 276.8 49.106 275.782 49.095 274.706 C 49.09 274.511 49.084 274.321 49.078 274.12 C 49.066 272.689 49.066 272.689 49.552 271.922 C 49.68 271.801 49.81 271.683 49.942 271.563 C 50.61 271.785 50.737 271.982 51.12 272.544 C 51.748 271.368 51.824 270.335 51.71 269.011 C 51.644 268.88 51.58 268.75 51.513 268.615 C 50.667 268.711 50.302 268.962 49.745 269.599 C 48.919 269.284 48.228 268.792 47.78 268.028 C 47.49 266.624 47.434 265.243 47.978 263.902 C 47.653 263.772 47.328 263.642 46.995 263.511 C 47.246 262.756 47.683 262.316 48.371 261.939 C 48.996 262.013 48.996 262.013 49.549 262.136 C 49.945 261.952 49.945 261.952 50.138 261.546 C 50.24 260.803 50.155 260.403 49.844 259.718 C 49.342 258.484 49.499 257.415 49.757 256.131 C 49.949 255.181 49.924 254.442 49.745 253.49 C 49.591 253.481 49.439 253.469 49.279 253.454 C 49.082 253.439 48.882 253.421 48.678 253.406 C 48.381 253.382 48.381 253.382 48.076 253.358 C 47.585 253.295 47.585 253.295 47.388 253.099 C 47.316 252.211 47.285 251.387 47.622 250.557 C 47.875 249.604 47.622 248.673 47.192 247.796 C 46.95 247.66 46.95 247.66 46.705 247.525 C 45.996 247.068 45.954 246.594 45.755 245.795 C 45.692 245.546 45.628 245.293 45.561 245.037 C 45.516 244.844 45.47 244.652 45.424 244.457 C 45.23 244.457 45.034 244.457 44.835 244.457 C 44.835 244.649 44.835 244.844 44.835 245.043 C 43.436 245.113 42.385 245.037 41.103 244.457 C 41.038 243.678 40.973 242.901 40.905 242.098 C 41.691 241.704 41.691 241.704 42.281 241.704 C 42.344 241.316 42.41 240.928 42.477 240.528 C 42.362 240.479 42.251 240.438 42.133 240.392 C 41.58 240.07 41.293 239.656 40.905 239.152 C 40.777 239.087 40.647 239.021 40.513 238.955 C 40.75 238.468 40.995 238.033 41.298 237.58 C 41.323 237.325 41.347 237.072 41.372 236.807 C 41.454 236.012 41.695 235.772 42.281 235.222 C 42.641 234.536 42.876 233.902 42.858 233.124 C 42.687 232.631 42.687 232.631 42.257 232.18 C 41.889 231.689 41.889 231.689 41.901 231.207 C 42.084 230.704 42.084 230.704 42.367 230.202 C 42.744 229.372 42.817 228.602 42.905 227.701 C 43.117 226.999 43.431 226.934 44.048 226.579 C 44.26 226.114 44.26 226.114 44.38 225.598 C 44.606 224.946 44.702 224.685 45.321 224.354 C 45.813 224.213 46.291 224.103 46.799 224.026 C 46.849 224.179 46.895 224.334 46.946 224.493 C 47.222 225.071 47.389 225.186 47.978 225.401 C 47.978 225.596 47.978 225.79 47.978 225.991 C 47.782 226.089 47.782 226.089 47.585 226.186 C 47.449 226.602 47.449 226.602 47.363 227.084 C 47.33 227.246 47.296 227.408 47.264 227.576 C 47.228 227.763 47.228 227.763 47.192 227.954 C 46.493 227.836 45.878 227.644 45.228 227.364 C 45.358 228.058 45.358 228.058 45.571 228.73 C 45.649 229.367 45.344 229.771 45.031 230.312 C 44.967 230.376 44.902 230.441 44.835 230.508 C 44.697 231.36 44.675 231.82 45.129 232.564 C 45.842 233.424 46.457 234.038 47.581 234.217 C 48.001 234.242 48.416 234.246 48.836 234.24 C 49.072 234.24 49.307 234.24 49.549 234.24 C 49.743 234.434 49.743 234.434 49.942 234.634 C 51.308 234.807 52.433 234.582 53.53 233.769 C 54.154 233.268 54.759 232.749 55.337 232.198 C 56.067 231.531 56.609 231.363 57.579 231.246 C 58.87 231.008 59.467 230.608 60.284 229.595 C 60.577 229.146 60.577 229.146 60.632 228.623 C 60.746 228.149 60.746 228.149 61.132 227.837 C 61.379 227.694 61.379 227.694 61.63 227.551 C 62.705 226.854 63.336 226.019 64.045 224.962 C 64.526 224.357 64.98 224.005 65.658 223.633 C 66.05 223.698 66.442 223.762 66.835 223.828 C 67.106 223.575 67.368 223.313 67.62 223.044 C 68.16 222.996 68.16 222.996 68.604 223.044 C 68.538 222.915 68.474 222.784 68.407 222.652 C 68.4 222.258 68.398 221.866 68.407 221.474 C 68.212 221.376 68.212 221.376 68.014 221.276 C 68.078 220.628 68.143 219.98 68.211 219.31 C 68.38 219.388 68.55 219.467 68.727 219.546 C 69.57 219.748 69.822 219.513 70.568 219.116 C 71.448 219.093 72.034 219.594 72.666 220.157 C 72.925 220.489 72.925 220.489 72.912 221.153 C 72.852 221.322 72.791 221.494 72.727 221.669 C 72.924 221.735 73.117 221.8 73.318 221.866 C 73.316 221.7 73.313 221.533 73.311 221.365 C 73.309 221.146 73.307 220.934 73.305 220.712 C 73.303 220.497 73.301 220.284 73.298 220.061 C 73.318 219.508 73.318 219.508 73.514 219.116 C 73.751 219.214 73.751 219.214 73.993 219.31 C 74.437 219.521 74.437 219.521 74.693 219.508 C 74.687 219.272 74.687 219.272 74.681 219.029 C 74.693 218.526 74.693 218.526 74.889 218.33 Z M 76.853 223.436 C 77.306 223.436 77.761 223.436 78.229 223.436 C 78.229 223.307 78.229 223.177 78.229 223.044 C 77.452 222.975 77.452 222.975 76.853 223.436 Z" style="fill: rgb(157, 55, 45); transform-origin: -270.532px -238.114px;" id="object-1"/>
  <path d="M 102.39 160.773 C 103.071 160.835 103.487 160.912 104.048 161.314 C 104.354 161.757 104.354 161.757 104.318 162.247 C 104.265 162.409 104.213 162.571 104.159 162.738 C 103.913 163.53 103.948 164.271 103.961 165.095 C 103.768 165.161 103.574 165.225 103.373 165.293 C 103.471 165.368 103.57 165.444 103.67 165.524 C 103.961 165.882 103.961 165.882 103.976 166.369 C 103.939 166.632 103.939 166.632 103.901 166.899 C 103.876 167.078 103.853 167.253 103.83 167.437 C 103.809 167.571 103.787 167.706 103.766 167.846 C 102.744 167.759 102.063 167.671 101.212 167.06 C 101.148 167.385 101.083 167.708 101.014 168.041 C 100.886 168.041 100.757 168.041 100.622 168.041 C 100.505 167.884 100.388 167.725 100.266 167.563 C 99.786 167.001 99.574 166.923 98.855 166.863 C 98.79 166.993 98.724 167.124 98.658 167.256 C 98.076 167.191 97.491 167.127 96.891 167.06 C 96.891 167.254 96.891 167.45 96.891 167.648 C 95.846 167.416 94.872 167.038 94.139 166.237 C 93.859 165.442 93.766 164.748 93.944 163.917 C 94.502 163.177 94.502 163.177 95.122 162.934 C 96.155 162.796 96.992 162.74 97.872 163.327 C 97.937 163.198 98.001 163.068 98.069 162.934 C 97.893 162.422 97.893 162.422 97.677 161.952 C 98.967 162.075 100.164 162.374 101.408 162.738 C 101.461 162.559 101.514 162.381 101.568 162.198 C 101.78 161.616 101.994 161.242 102.39 160.773 Z" style="fill: rgb(157, 55, 45); transform-origin: -270.532px -238.114px;" id="object-2"/>
  <path d="M 221.039 313.011 C 222.086 312.999 222.952 313.002 223.984 313.205 C 223.984 313.921 223.984 314.634 223.984 315.368 C 224.307 315.306 224.634 315.24 224.967 315.172 C 225.424 315.163 225.882 315.163 226.342 315.172 C 226.366 315.488 226.366 315.488 226.391 315.81 C 226.546 316.601 226.71 316.84 227.325 317.332 C 227.134 317.38 226.943 317.429 226.746 317.481 C 226.546 317.562 226.348 317.641 226.144 317.726 C 225.954 318.126 225.954 318.126 225.948 318.511 C 226.144 318.578 226.337 318.641 226.538 318.708 C 227.073 319.439 227.325 320.185 227.522 321.066 C 227.455 321.262 227.392 321.454 227.325 321.656 C 226.522 321.719 226.033 321.692 225.299 321.349 C 224.648 320.756 224.502 320.359 224.378 319.494 C 224.568 319.057 224.568 319.057 224.769 318.708 C 224.666 318.623 224.568 318.535 224.462 318.448 C 224.072 318.093 223.719 317.753 223.397 317.332 C 223.397 316.68 223.5 316.338 223.789 315.762 C 223.602 315.817 223.416 315.873 223.223 315.933 C 222.134 316.104 221.303 315.371 220.449 314.779 C 220.645 314.195 220.837 313.611 221.039 313.011 Z" style="fill: rgb(157, 55, 45); transform-origin: -270.532px -238.114px;" id="object-3"/>
  <path d="M 195.893 236.795 C 196.374 236.905 196.854 237.021 197.331 237.137 C 197.467 237.168 197.602 237.201 197.743 237.23 C 198.345 237.385 198.776 237.523 199.238 237.943 C 199.48 238.477 199.434 238.726 199.285 239.285 C 199.244 239.442 199.205 239.595 199.164 239.757 C 199.036 240.133 199.036 240.133 198.841 240.328 C 198.447 240.381 198.056 240.432 197.663 240.47 C 197.229 240.522 197.229 240.522 196.678 240.724 C 196.066 240.51 195.575 240.194 195.108 239.743 C 194.867 238.501 195.207 237.824 195.893 236.795 Z" style="fill: rgb(157, 55, 45); transform-origin: -270.532px -238.114px;" id="object-4"/>
  <path d="M 154.643 334.618 C 154.643 334.814 154.643 335.01 154.643 335.208 C 154.867 335.246 154.867 335.246 155.097 335.281 C 155.625 335.406 155.625 335.406 156.214 335.797 C 156.293 336.329 156.241 336.828 156.214 337.37 C 155.65 337.494 155.65 337.494 155.036 337.565 C 154.905 337.436 154.776 337.307 154.643 337.174 C 154.115 337.118 153.603 337.157 153.071 337.174 C 152.284 335.849 152.284 335.849 152.284 335.406 C 152.566 335.235 152.849 335.069 153.133 334.9 C 153.367 334.762 153.367 334.762 153.609 334.618 C 154.053 334.422 154.053 334.422 154.643 334.618 Z" style="fill: rgb(157, 55, 45); transform-origin: -270.532px -238.114px;" id="object-5"/>
  <path d="M 115.159 178.061 C 115.98 178.219 116.469 178.534 117.054 179.123 C 117.629 180.222 117.292 181.588 117.124 182.775 C 116.499 182.51 116.212 182.27 115.857 181.693 C 115.443 181.073 115.118 180.806 114.373 180.613 C 114.467 180.298 114.562 179.983 114.656 179.669 C 114.707 179.493 114.76 179.318 114.814 179.136 C 114.923 178.775 115.04 178.418 115.159 178.061 Z" style="fill: rgb(157, 55, 45); transform-origin: -270.532px -238.114px;" id="object-6"/>
  <path d="M 175.268 229.723 C 175.002 230.521 174.594 230.649 173.893 231.096 C 173.093 231.685 173.093 231.685 172.518 232.474 C 172.647 232.474 172.777 232.474 172.911 232.474 C 172.645 233.05 172.341 233.514 171.929 233.997 C 171.827 234.116 171.727 234.235 171.623 234.36 C 171.34 234.634 171.34 234.634 170.946 234.634 C 170.882 233.598 170.817 232.559 170.749 231.489 C 171.602 231.096 172.452 230.703 173.304 230.312 C 173.454 230.243 173.605 230.174 173.758 230.103 C 174.302 229.86 174.664 229.723 175.268 229.723 Z" style="fill: rgb(157, 55, 45); transform-origin: -270.532px -238.114px;" id="object-7"/>
  <path d="M 87.265 153.113 C 87.399 153.354 87.527 153.594 87.657 153.837 C 87.73 153.971 87.804 154.107 87.878 154.244 C 88.084 154.77 88.126 155.107 88.05 155.666 C 87.763 156.106 87.763 156.106 87.389 156.513 C 87.264 156.651 87.14 156.788 87.016 156.928 C 86.676 157.237 86.676 157.237 86.283 157.237 C 85.753 156.679 85.496 156.358 85.499 155.577 C 85.659 154.589 86.014 153.113 87.265 153.113 Z" style="fill: rgb(157, 55, 45); transform-origin: -270.532px -238.114px;" id="object-8"/>
  <path d="M 93.747 169.024 C 94.066 169.502 94.374 169.979 94.669 170.473 C 94.757 170.619 94.847 170.766 94.94 170.92 C 95.167 171.497 95.11 171.775 94.926 172.364 C 94.717 172.818 94.717 172.818 94.532 173.15 C 94.221 173.06 93.911 172.969 93.6 172.879 C 93.34 172.804 93.34 172.804 93.074 172.728 C 92.615 172.575 92.208 172.396 91.783 172.167 C 91.783 172.038 91.783 171.908 91.783 171.774 C 91.969 171.718 92.155 171.661 92.348 171.603 C 92.991 171.257 92.991 171.257 93.114 170.715 C 93.176 170.36 93.227 170.005 93.27 169.648 C 93.312 169.438 93.312 169.438 93.354 169.22 C 93.485 169.155 93.614 169.092 93.747 169.024 Z" style="fill: rgb(157, 55, 45); transform-origin: -270.532px -238.114px;" id="object-9"/>
  <path d="M 145.802 333.442 C 146.516 333.442 147.229 333.442 147.963 333.442 C 148.161 333.827 148.356 334.209 148.553 334.594 C 148.663 334.811 148.771 335.023 148.884 335.243 C 149.143 335.8 149.143 335.8 149.143 336.191 C 148.683 336.135 148.225 336.067 147.767 335.996 C 147.402 335.939 147.402 335.939 147.03 335.884 C 146.326 335.572 146.277 335.506 146.013 334.829 C 145.854 334.327 145.802 333.976 145.802 333.442 Z" style="fill: rgb(157, 55, 45); transform-origin: -270.532px -238.114px;" id="object-10"/>
  <path d="M 214.163 313.011 C 215.178 312.996 215.178 312.996 215.732 313.205 C 216.239 313.819 216.715 314.56 216.715 315.368 C 214.542 315.332 214.542 315.332 213.82 314.706 C 213.573 314.192 213.573 314.192 213.573 313.602 C 213.702 313.602 213.832 313.602 213.967 313.602 C 214.029 313.404 214.096 313.211 214.163 313.011 Z" style="fill: rgb(157, 55, 45); transform-origin: -270.532px -238.114px;" id="object-11"/>
  <path d="M 233.152 305.304 C 233.305 305.384 233.453 305.465 233.61 305.546 C 233.741 305.609 233.868 305.676 234.001 305.744 C 233.884 306.361 233.68 306.762 233.305 307.266 C 233.216 307.384 233.125 307.508 233.031 307.632 C 232.964 307.721 232.894 307.812 232.824 307.905 C 232.118 307.796 231.843 307.559 231.4 307.009 C 231.297 306.883 231.194 306.756 231.09 306.626 C 231.014 306.53 230.938 306.431 230.86 306.334 C 231.13 306.125 231.406 305.919 231.681 305.719 C 231.836 305.604 231.989 305.489 232.146 305.373 C 232.625 305.153 232.625 305.153 233.152 305.304 Z" style="fill: rgb(157, 55, 45); transform-origin: -270.532px -238.114px;" id="object-12"/>
  <path d="M 100.622 179.632 C 100.755 179.885 100.886 180.139 101.014 180.393 C 101.089 180.534 101.162 180.674 101.236 180.821 C 101.408 181.204 101.408 181.204 101.408 181.596 C 100.756 182.139 100.43 182.397 99.567 182.333 C 99.311 182.261 99.311 182.261 99.05 182.184 C 99.05 181.407 99.05 180.628 99.05 179.827 C 100.034 179.632 100.034 179.632 100.622 179.632 Z" style="fill: rgb(157, 55, 45); transform-origin: -270.532px -238.114px;" id="object-13"/>
  <path d="M 177.428 308.296 C 178.028 308.497 178.473 308.733 179.002 309.081 C 178.746 309.652 178.502 310.062 178.018 310.459 C 177.575 310.557 177.575 310.557 177.097 310.591 C 176.938 310.603 176.779 310.619 176.616 310.632 C 176.495 310.641 176.377 310.646 176.251 310.655 C 176.372 309.184 176.372 309.184 176.729 308.702 C 177.036 308.495 177.036 308.495 177.428 308.296 Z" style="fill: rgb(157, 55, 45); transform-origin: -270.532px -238.114px;" id="object-14"/>
  <path d="M 210.037 313.993 C 210.037 314.642 210.037 315.291 210.037 315.959 C 209.52 316.022 209 316.088 208.465 316.153 C 208.402 315.57 208.335 314.985 208.27 314.387 C 209.373 313.993 209.373 313.993 210.037 313.993 Z" style="fill: rgb(157, 55, 45); transform-origin: -270.532px -238.114px;" id="object-15"/>
  <path d="M 229.286 310.85 C 229.484 311.049 229.484 311.049 229.511 311.622 C 229.484 312.225 229.484 312.225 229.286 312.619 C 228.707 312.796 228.116 312.892 227.522 313.011 C 227.586 312.363 227.651 311.716 227.716 311.049 C 228.295 310.852 228.685 310.82 229.286 310.85 Z" style="fill: rgb(157, 55, 45); transform-origin: -270.532px -238.114px;" id="object-16"/>
  <text style="fill: rgb(231, 59, 59); font-family: Montserrat; font-size: 180.4px; font-weight: 900; letter-spacing: 20px; stroke-linecap: round; stroke-width: 0px; white-space: pre; transform-origin: -270.532px -238.114px;" x="299.849" y="211.596" id="object-17">SCIARRONE</text>
  <defs>
    <style bx:fonts="Montserrat">@import url(https://fonts.googleapis.com/css2?family=Montserrat%3Aital%2Cwght%400%2C100..900%3B1%2C100..900&amp;display=swap);</style>
    <bx:export>
      <bx:file format="svg" href="#object-0"/>
      <bx:file format="svg" href="#object-1" path="Untitled 2.svg"/>
      <bx:file format="svg" href="#object-2" path="Untitled 3.svg"/>
      <bx:file format="svg" href="#object-3" path="Untitled 4.svg"/>
      <bx:file format="svg" href="#object-4" path="Untitled 5.svg"/>
      <bx:file format="svg" href="#object-5" path="Untitled 6.svg"/>
      <bx:file format="svg" href="#object-6" path="Untitled 7.svg"/>
      <bx:file format="svg" href="#object-7" path="Untitled 8.svg"/>
      <bx:file format="svg" href="#object-8" path="Untitled 9.svg"/>
      <bx:file format="svg" href="#object-9" path="Untitled 10.svg"/>
      <bx:file format="svg" href="#object-10" path="Untitled 11.svg"/>
      <bx:file format="svg" href="#object-11" path="Untitled 12.svg"/>
      <bx:file format="svg" href="#object-12" path="Untitled 13.svg"/>
      <bx:file format="svg" href="#object-13" path="Untitled 14.svg"/>
      <bx:file format="svg" href="#object-14" path="Untitled 15.svg"/>
      <bx:file format="svg" href="#object-15" path="Untitled 16.svg"/>
      <bx:file format="svg" href="#object-16" path="Untitled 17.svg"/>
      <bx:file format="svg" href="#object-17" path="Untitled 18.svg"/>
      <bx:file format="svg" href="#object-18" path="Untitled 19.svg"/>
      <bx:file format="svg" path="Untitled 20.svg"/>
    </bx:export>
  </defs>
  <text style="fill: rgb(157, 55, 45); font-family: Montserrat; font-size: 180.4px; font-weight: 900; letter-spacing: 20px; stroke-linecap: round; stroke-width: 0px; white-space: pre; transform-origin: -270.532px -238.114px;" x="306.543" y="220.711" id="object-18">SCIARRONE</text>
</svg>